<svg xmlns="http://www.w3.org/2000/svg" xmlns:xlink="http://www.w3.org/1999/xlink" width="689" height="533.872" viewBox="0 0 689 533.872"><defs><linearGradient id="a" x1="0.667" y1="1" x2="0.667" gradientUnits="objectBoundingBox"><stop offset="0" stop-color="gray" stop-opacity="0.251"/><stop offset="0.54" stop-color="gray" stop-opacity="0.122"/><stop offset="1" stop-color="gray" stop-opacity="0.102"/></linearGradient></defs><g transform="translate(0 0.005)"><ellipse cx="85.795" cy="9.494" rx="85.795" ry="9.494" transform="translate(276.136 459.078)" fill="#6c63ff" opacity="0.1"/><ellipse cx="22.72" cy="2.516" rx="22.72" ry="2.516" transform="translate(254.185 514.38)" fill="#6c63ff" opacity="0.1"/><ellipse cx="22.72" cy="2.516" rx="22.72" ry="2.516" transform="translate(474.947 528.834)" fill="#6c63ff" opacity="0.1"/><ellipse cx="22.72" cy="2.516" rx="22.72" ry="2.516" transform="translate(620.807 473.644)" fill="#6c63ff" opacity="0.1"/><ellipse cx="85.795" cy="19.619" rx="85.795" ry="19.619" transform="translate(8.088 481.712)" fill="#6c63ff" opacity="0.1"/><path d="M135.109,350.12h60.4v82.345H139.524c-.145.848-.289,1.7-.447,2.543h56.432V501.4a1.972,1.972,0,0,1-.276-.105c-1.6-.657-3.187-1.314-4.75-2l-1.018-.466q-2.4-1.124-4.75-2.385c-.552-.289-1.1-.591-1.649-.9A99.1,99.1,0,0,1,159.3,477.032c-.2-.2-.394-.407-.585-.6-.959-1.045-1.912-2.109-2.825-3.187l-1.018-1.215c-1.084-1.314-2.129-2.687-3.141-4.067-.151-.2-.3-.414-.447-.611a87.737,87.737,0,0,1-10.236-18.509c-.085-.2-.164-.407-.237-.6q-1.242-3.127-2.214-6.353c-.269-.9-.539-1.807-.762-2.72-.085-.269-.151-.545-.223-.808-3.351-13.187-3.732-26.892-3.732-40.526v-4.763q0-8.272.158-16.59c.033-1.432.059-2.865.092-4.3.085-3.653.2-7.313.355-10.966.039-1.012.085-2.03.138-3.035,0-.585.053-1.169.092-1.748C134.839,354.318,134.964,352.222,135.109,350.12Z" transform="translate(-95.634 -148.815)" fill="#6c63ff" opacity="0.1"/><path d="M210.384,188.729H177.25a250.908,250.908,0,0,1,17.628-24.264c4.921-6.045,10.1-11.945,15.506-17.615Z" transform="translate(-110.509 -79.099)" fill="#6c63ff" opacity="0.1"/><path d="M196.236,214.446v86.59H136a7.456,7.456,0,0,1,.066-.762c.053-.657.105-1.36.164-2.043.059-.8.138-1.6.21-2.4s.158-1.735.25-2.6.177-1.735.276-2.628.191-1.728.3-2.582.2-1.728.315-2.582c.092-.716.184-1.426.283-2.142q.2-1.511.434-3.016a3.329,3.329,0,0,1,.066-.447,205.434,205.434,0,0,1,4.435-21.735,160.426,160.426,0,0,1,7.47-22.03A164.823,164.823,0,0,1,161.5,214.42Z" transform="translate(-96.361 -102.273)" fill="#6c63ff" opacity="0.1"/><path d="M249.633,245.035v82.345H378.647V245.035Zm0,84.888v70.749c.736.151,1.465.3,2.194.427.986.191,1.971.361,2.963.512.191,0,.388.059.585.079.394.066.795.118,1.189.171.992.138,1.971.25,2.99.342l1.419.125,1.15.085h0c.624.046,1.242.085,1.859.105a9.662,9.662,0,0,1,1.15.046h4.218c.512,0,1.025,0,1.531-.046h0a8.248,8.248,0,0,0,1.064-.046,2.356,2.356,0,0,0,.3,0,6.531,6.531,0,0,0,.88-.039h.2l1.971-.158c.657-.059,1.314-.131,1.971-.2l1.353-.164a118.493,118.493,0,0,0,16.34-3.476c12.037-3.357,23.784-8.055,35.841-11.491,15.644-4.474,32.832-6.636,47.838-1.255V329.924ZM378.647,153.36V43.735a165.7,165.7,0,0,0-41.918,4.915c-32.674,8.206-62.01,26.012-87.109,48.752V153.36h6.472V155.9H249.62v86.59H378.647V155.9H282.721V153.36Zm165.762-37.03a53.5,53.5,0,0,1-23.39-6.8c-13.9-7.556-25.02-19.231-37.4-29.08-25.762-20.519-57.733-32.9-90.512-35.972V153.36H577.274l.453-.486Zm16.781-3,17.792,19.527V108.216c-5.972.736-11.189,2.51-17.779,5.112Zm17.792,304.862V329.924H541.058c-.1-.375-.2-.756-.322-1.137.112.381.21.762.315,1.137H393.1V393.76c1.406,1.045,2.792,2.142,4.166,3.252h0c1.485,1.209,2.95,2.444,4.422,3.679l1.478,1.222c.71.591,1.426,1.17,2.142,1.754q2.148,1.735,4.33,3.43c.723.572,1.459,1.13,2.188,1.689a299.028,299.028,0,0,0,36.689,23.995q4.3,2.392,8.686,4.645,2.917,1.5,5.867,2.943,4.428,2.162,8.922,4.185h0a327.891,327.891,0,0,0,86.925,25.315q9.993,1.472,20.066,2.319v-54h0ZM393.1,155.9v86.59H579V155.9Zm0,89.133v82.345H579V245.035ZM593.424,108.1V135.64l22.707-24.921Q604.849,108.879,593.424,108.1Zm0,136.938v82.345H774.232V245.035Zm180.171,179.7.657-94.809H593.424V473.156a324.524,324.524,0,0,0,34.941-.421h.2q8.318-.532,16.59-1.524h.125a305.371,305.371,0,0,0,85.236-22.746m78.587-189.842q-1.025-2.4-2.109-4.77c-1.314-2.95-2.766-5.867-4.231-8.758H788.66v82.286h35.664c-.026-23.292-5.927-47.135-15.21-68.817Zm-20.447,71.36v81.5a116.688,116.688,0,0,0,24.645-33.239c7.352-15.171,10.7-31.59,10.992-48.318Zm0-108.883v21.452h12.786a232.553,232.553,0,0,0-12.779-21.511ZM666.045,124.254c-.94-.361-1.886-.723-2.832-1.071a256.966,256.966,0,0,0-30.539-9.2l-34.75,38.108h0l-.657.729.447.486H721.367a264.451,264.451,0,0,0-55.322-29.054ZM725.007,155.9H595.96l-2.536,2.326v84.264H774.218V201.658A257.414,257.414,0,0,0,725.007,155.9Z" transform="translate(-135.33 -43.73)" fill="#6c63ff" opacity="0.1"/><path d="M196.236,280.926v42.911H136a7.456,7.456,0,0,1,.066-.762c.053-.657.105-1.36.164-2.043.059-.795.138-1.6.21-2.4s.158-1.735.25-2.6.177-1.735.276-2.628.191-1.728.3-2.582.2-1.728.315-2.582c.092-.716.184-1.426.283-2.142q.2-1.511.434-3.016a3.327,3.327,0,0,1,.066-.447,205.431,205.431,0,0,1,4.435-21.735Z" transform="translate(-96.361 -125.074)" fill="#6c63ff" opacity="0.1"/><path d="M135.109,350.12h60.4v82.345H139.524c-.145.848-.289,1.7-.447,2.543h56.432V501.4a1.972,1.972,0,0,1-.276-.105c-1.6-.657-3.187-1.314-4.75-2l-1.018-.466q-2.4-1.124-4.75-2.385c-.552-.289-1.1-.591-1.649-.9A99.1,99.1,0,0,1,159.3,477.032c-.2-.2-.394-.407-.585-.6-.959-1.045-1.912-2.109-2.825-3.187l-1.018-1.215c-1.084-1.314-2.129-2.687-3.141-4.067-.151-.2-.3-.414-.447-.611a87.737,87.737,0,0,1-10.236-18.509c-.085-.2-.164-.407-.237-.6q-1.242-3.127-2.214-6.353c-.269-.9-.539-1.807-.762-2.72-.085-.269-.151-.545-.223-.808-3.351-13.187-3.732-26.892-3.732-40.526v-4.763q0-8.272.158-16.59c.033-1.432.059-2.865.092-4.3.085-3.653.2-7.313.355-10.966.039-1.012.085-2.03.138-3.035,0-.585.053-1.169.092-1.748C134.839,354.318,134.964,352.222,135.109,350.12Z" transform="translate(-95.634 -148.815)" fill="#6c63ff" opacity="0.1"/><path d="M219.39,176.488V250.68H173.97V176.488h6.472V151.37h26.59v25.118Z" transform="translate(-59.667 -51.917)" fill="#6c63ff" opacity="0.1"/><rect width="45.42" height="82.345" transform="translate(114.31 201.305)" fill="#6c63ff" opacity="0.1"/><path d="M249.64,479.32h45.42v68.469a117.3,117.3,0,0,1-16.34,3.469c-.453.066-.9.118-1.353.171-.657.072-1.314.145-1.971.2l-1.971.158h-.21c-.282,0-.578.033-.874.039a2.333,2.333,0,0,1-.3,0c-.361,0-.716.039-1.071.046h0c-.506,0-1.012.033-1.531.046h-4.218a10.33,10.33,0,0,1-1.15-.046c-.618,0-1.235-.059-1.859-.105h0l-1.143-.085-1.426-.125c-1-.092-1.971-.21-2.99-.342-.388-.053-.8-.105-1.189-.171a4.091,4.091,0,0,1-.578-.079c-.992-.151-1.971-.322-2.963-.513-.736-.125-1.465-.276-2.2-.427Z" transform="translate(-135.337 -193.127)" fill="#6c63ff" opacity="0.1"/><rect width="37.457" height="82.95" transform="translate(406.215 115.813)" fill="#6c63ff" opacity="0.1"/><path d="M578.226,306.39v82.345H392.32V353.223h99.021v20.946h49.428V306.39Z" transform="translate(-134.554 -105.085)" fill="#6c63ff" opacity="0.1"/><path d="M654.488,567.018H653.9v54.014q-10.072-.848-20.066-2.319a327.725,327.725,0,0,1-86.945-25.348q-11.984-5.4-23.476-11.774A299.549,299.549,0,0,1,486.722,557.6q-4.382-3.358-8.653-6.866c-1.971-1.63-3.942-3.285-5.913-4.915q-2.05-1.666-4.166-3.285v-63.8H615.946c-.1-.374-.2-.756-.309-1.137.112.381.217.762.315,1.137H653.9v88.252Z" transform="translate(-210.224 -192.533)" fill="#6c63ff" opacity="0.1"/><path d="M886.866,194.837h-24.4v-7.615H873.4V164.66c.946.348,1.892.71,2.832,1.071v21.491h10.631Z" transform="translate(-345.52 -85.207)" fill="#6c63ff" opacity="0.1"/><path d="M914.953,301.05H772.89V218.1h6.3v61.314h28.778V243.126h23.778V214.46h24.4v28.666h23.771v36.288h35.039Z" transform="translate(-314.796 -102.287)" fill="#6c63ff" opacity="0.1"/><path d="M772.89,350.12v82.345H914.953V350.12ZM953.5,529.41l.2-65.177H914.933V435.008H772.89V578.241a324.525,324.525,0,0,0,34.941-.421h.2q8.318-.532,16.59-1.524h.125a305.371,305.371,0,0,0,85.236-22.746" transform="translate(-314.796 -148.815)" fill="#6c63ff" opacity="0.1"/><path d="M1072.557,479.32H1105.7c-.289,16.728-3.646,33.147-11,48.318a116.668,116.668,0,0,1-24.639,33.239V508.512h2.5Z" transform="translate(-416.717 -193.127)" fill="#6c63ff" opacity="0.1"/><path d="M1107.02,439.527h-33.16V370.71H1091.8C1101.087,392.392,1106.987,416.236,1107.02,439.527Z" transform="translate(-418.02 -155.876)" fill="#6c63ff" opacity="0.1"/><rect width="20.066" height="26.005" transform="translate(423.606 138.868)" fill="#6c63ff" opacity="0.1"/><rect width="20.066" height="5.986" transform="translate(423.606 192.777)" fill="#6c63ff" opacity="0.1"/><rect width="20.066" height="17.47" transform="translate(423.606 201.305)" fill="#6c63ff" opacity="0.1"/><rect width="20.066" height="26.005" transform="translate(423.606 246.68)" fill="#6c63ff" opacity="0.1"/><rect width="20.066" height="26.005" transform="translate(423.606 300.589)" fill="#6c63ff" opacity="0.1"/><path d="M740.466,603.224l.591.039h-.591V609.3H720.4V583.27h20.066Z" transform="translate(-296.794 -228.778)" fill="#6c63ff" opacity="0.1"/><path d="M740.466,665.3v20.085q-10.072-.848-20.066-2.319v-17.74Z" transform="translate(-296.794 -256.912)" fill="#6c63ff" opacity="0.1"/><rect width="85.992" height="1.912" transform="translate(257.766 281.739)" fill="#6c63ff" opacity="0.1"/><rect width="85.992" height="7.319" transform="translate(257.766 286.193)" fill="#6c63ff" opacity="0.1"/><rect width="85.992" height="11.774" transform="translate(257.766 317.514)" fill="#6c63ff" opacity="0.1"/><path d="M556.156,581.44v11.774H488.9q-4.382-3.351-8.653-6.873c-1.971-1.623-3.942-3.285-5.913-4.9Z" transform="translate(-212.399 -228.151)" fill="#6c63ff" opacity="0.1"/><path d="M582.912,635.88v11.781h-7.1q-11.984-5.4-23.476-11.781Z" transform="translate(-239.154 -246.822)" fill="#6c63ff" opacity="0.1"/><rect width="16.925" height="16.925" transform="translate(493.041 209.288)" fill="#6c63ff" opacity="0.1"/><rect width="16.925" height="16.925" transform="translate(126.504 130.412)" fill="#6c63ff" opacity="0.1"/><rect width="16.925" height="16.925" transform="translate(126.504 169.729)" fill="#6c63ff" opacity="0.1"/><rect width="16.925" height="16.925" transform="translate(126.504 209.052)" fill="#6c63ff" opacity="0.1"/><rect width="16.925" height="16.925" transform="translate(126.504 248.375)" fill="#6c63ff" opacity="0.1"/><rect width="16.925" height="16.925" transform="translate(126.504 287.698)" fill="#6c63ff" opacity="0.1"/><rect width="16.925" height="16.925" transform="translate(126.504 327.021)" fill="#6c63ff" opacity="0.1"/><rect width="16.925" height="16.925" transform="translate(557.667 209.288)" fill="#6c63ff" opacity="0.1"/><rect width="16.925" height="16.925" transform="translate(493.041 251.042)" fill="#6c63ff" opacity="0.1"/><rect width="16.925" height="16.925" transform="translate(557.667 251.042)" fill="#6c63ff" opacity="0.1"/><rect width="16.925" height="16.925" transform="translate(493.041 292.797)" fill="#6c63ff" opacity="0.1"/><rect width="16.925" height="16.925" transform="translate(557.667 292.797)" fill="#6c63ff" opacity="0.1"/><rect width="16.925" height="16.925" transform="translate(493.041 334.551)" fill="#6c63ff" opacity="0.1"/><rect width="16.925" height="16.925" transform="translate(557.667 334.551)" fill="#6c63ff" opacity="0.1"/><rect width="16.925" height="16.925" transform="translate(493.041 376.305)" fill="#6c63ff" opacity="0.1"/><rect width="16.925" height="16.925" transform="translate(557.667 376.305)" fill="#6c63ff" opacity="0.1"/><path d="M750.41,647.2V636.29h16.925v9.363Z" transform="translate(-257.369 -218.231)" fill="#6c63ff" opacity="0.1"/><path d="M139.51,314v9.685h57.93V314Zm5.769,9.08h-4.75v-8.423h4.75Zm5.769,0H146.3v-8.423h4.75Zm5.756,0h-4.75v-8.423h4.75Zm5.769,0h-4.75v-8.423h4.75Zm5.762,0h-4.75v-8.423h4.75Zm5.769,0h-4.75v-8.423h4.75Zm5.769,0h-4.75v-8.423h4.75Zm5.762,0h-4.75v-8.423h4.75Zm5.762,0h-4.75v-8.423h4.75Zm5.762,0h-4.763v-8.423h4.75Z" transform="translate(-97.565 -136.427)" fill="#6c63ff" opacity="0.1"/><path d="M139.51,356.93v9.685h57.93V356.93ZM145.279,366h-4.75v-8.462h4.75Zm5.769,0H146.3v-8.462h4.75Zm5.756,0h-4.75v-8.462h4.75Zm5.769,0h-4.75v-8.462h4.75Zm5.762,0h-4.75v-8.462h4.75Zm5.769,0h-4.75v-8.462h4.75Zm5.769,0h-4.75v-8.462h4.75Zm5.762,0h-4.75v-8.462h4.75Zm5.762,0h-4.75v-8.462h4.75Zm5.762,0h-4.763v-8.462h4.75Z" transform="translate(-97.565 -151.15)" fill="#6c63ff" opacity="0.1"/><path d="M139.51,399.84v9.678h57.93V399.84Zm5.769,9.067h-4.75v-8.462h4.75Zm5.769,0H146.3v-8.462h4.75Zm5.756,0h-4.75v-8.462h4.75Zm5.769,0h-4.75v-8.462h4.75Zm5.762,0h-4.75v-8.462h4.75Zm5.769,0h-4.75v-8.462h4.75Zm5.769,0h-4.75v-8.462h4.75Zm5.762,0h-4.75v-8.462h4.75Zm5.762,0h-4.75v-8.462h4.75Zm5.762,0h-4.763v-8.462h4.75Z" transform="translate(-97.565 -165.867)" fill="#6c63ff" opacity="0.1"/><path d="M139.51,442.74v9.678h57.93V442.74Zm5.769,9.074h-4.75v-8.469h4.75Zm5.769,0H146.3v-8.469h4.75Zm5.756,0h-4.75v-8.469h4.75Zm5.769,0h-4.75v-8.469h4.75Zm5.762,0h-4.75v-8.469h4.75Zm5.769,0h-4.75v-8.469h4.75Zm5.769,0h-4.75v-8.469h4.75Zm5.762,0h-4.75v-8.469h4.75Zm5.762,0h-4.75v-8.469h4.75Zm5.762,0h-4.763v-8.469h4.75Z" transform="translate(-97.565 -180.581)" fill="#6c63ff" opacity="0.1"/><path d="M139.89,485.64c.23.913.493,1.82.769,2.72v-2.109h4.75v8.463h-2.536c.072.2.151.407.23.6h54.468V485.64Zm11.288,9.074h-4.75v-8.463h4.75Zm5.756,0h-4.75v-8.463h4.75Zm5.769,0h-4.75v-8.463h4.75Zm5.762,0h-4.75v-8.463h4.75Zm5.769,0h-4.75v-8.463h4.75Zm5.769,0h-4.75v-8.463H180Zm5.762,0h-4.75v-8.463h4.75Zm5.762,0h-4.75v-8.463h4.75Zm5.762,0h-4.763v-8.463h4.75Z" transform="translate(-97.696 -195.294)" fill="#6c63ff" opacity="0.1"/><path d="M160.36,528.55c.151.191.3.4.447.6h3.147v4.067l1.018,1.215v-5.256h4.75v8.469H167.8c.191.2.375.407.585.6h36.209v-9.7Zm15.112,9.074h-4.75v-8.469h4.75Zm5.769,0h-4.75v-8.469h4.75Zm5.769,0h-4.75v-8.469h4.75Zm5.762,0h-4.75v-8.469h4.75Zm5.762,0h-4.75v-8.469h4.75Zm5.762,0h-4.75v-8.469h4.75Z" transform="translate(-104.716 -210.011)" fill="#6c63ff" opacity="0.1"/><path d="M208.73,571.45c.545.309,1.1.611,1.656.9v-.3h4.75v2.681l1.012.466v-3.147h4.75v5.151a2.073,2.073,0,0,0,.283.105V571.45Z" transform="translate(-121.306 -224.724)" fill="#6c63ff" opacity="0.1"/><path d="M619.049,299.723ZM582.38,475.406ZM544.122,386.05c.112.381.21.762.315,1.137h0c-.118-.407-.2-.788-.315-1.17Zm74.9-86.294ZM259.49,210.59v2.543h26.616V210.59ZM582.38,475.373Zm-38.259-89.356c.112.381.21.762.315,1.137h0c-.118-.374-.2-.756-.315-1.137Zm74.9-86.294ZM582.38,475.406ZM544.122,386.05c.112.381.21.762.315,1.137h0c-.118-.407-.2-.788-.315-1.17Z" transform="translate(-138.715 -100.96)" fill="#6c63ff" opacity="0.1"/><path d="M5.454,387.669l-4.494.236,4.494,28.857L16.413,447.2l3.233-7.97,422.956-32.4-.079-12.93L378.811,370.56Z" transform="translate(-0.329 -127.093)" fill="#eec5cd"/><path d="M571.163,503.116l-4.593-2.109L543.725,490.5l-.315-4.731,21.735,9.691,4.442,1.978Z" transform="translate(-186.374 -166.607)" fill="#d48a9b"/><path d="M97.9,529.1l-1.261,6.951-3.331-4.5-4.9-6.623-3.443-4.652,1.892-3.784,2.832,3.233,1.61,1.84,2.773,3.167.335.381Z" transform="translate(-29.139 -177.143)" fill="#d48a9b"/><path d="M630.6,608.488c-.526,3.088-2.083,2.687-3.5,1.537a8.542,8.542,0,0,1-2.99-5.526l-12.247-90.512-.447-3.285-.526-3.909-.447-3.239-.887-6.57L609,492.851l6.3-2.2.782,5.913,1.925,14.455.427,3.226.46,3.436.086.657.447,3.285.131,1.012L630.61,605.61A10.045,10.045,0,0,1,630.6,608.488Z" transform="translate(-258.587 -197.012)" fill="#d48a9b"/><path d="M582.508,508.174l-4.593-2.109-1.176-4.593-.25-.953,4.441,1.978Z" transform="translate(-197.719 -171.666)" opacity="0.1"/><path d="M686.367,635.528c-.315,2.727-1.787,3.055-3.285,2.628a6.282,6.282,0,0,1-4.225-4.533L652.123,529.589l-1.439-5.571-8.029-31.281-1.025-3.942L647,482.48l2.549,9.823,36.583,140.46A7.549,7.549,0,0,1,686.367,635.528Z" transform="translate(-269.778 -194.21)" fill="#d48a9b"/><path d="M544.745,486.257l-2.339-2.332-1.084-1.091-4.139-4.146-.44-3.279-.532-3.909,5.223,5.118,2.319,2.28.46,3.436.085.644Z" transform="translate(-183.905 -161.713)" opacity="0.1"/><path d="M550.693,483.694H544.07l-.217-.217-7.457-7.457-1.084-1.091-6.472-6.478-13-13-2.674-2.674,4.409-1.57,3.942,3.87,6.34,6.222,7.562,7.411L547.138,480.2Z" transform="translate(-176.002 -154.754)" fill="#d48a9b"/><path d="M156.362,519.89l-1.459,5.985-5.394,22.063-1.222,4.98-22.746,93.055a9.073,9.073,0,0,1-1.813,3.7c-2.188,2.628-3.561,1.38-4.336-.21a6.853,6.853,0,0,1-.427-4.645l29.192-118.508,1.577-6.419Z" transform="translate(-90.442 -207.041)" fill="#d48a9b"/><path d="M131.448,475.69l-4.2,4.238-16.7,16.846-1.156,1.169-2.319,2.339-6.452,6.5-1.143,1.156-2.293,2.306-.48.493-1.216,1.222L92.65,508.8l1.281-1.235,4.442-4.323,2.273-2.208,1.137-1.1,6.5-6.327,2.3-2.234,1.15-1.117L122,480.276l4.717-4.586Z" transform="translate(-31.776 -163.15)" fill="#d48a9b"/><path d="M115.89,497.87l-.2,1.117-.979,5.394-1.156,1.169-8.771,8.837.972-5.742.191-1.1,8.8-8.561Z" transform="translate(-35.936 -170.757)" opacity="0.1"/><path d="M98.757,529.61l3.5,3.988-1.261,6.951-3.331-4.5.788-4.625Z" transform="translate(-33.495 -181.643)" opacity="0.1"/><path d="M110.647,502.97l-.782,4.33-.427,2.339-6.452,6.5-1.143,1.156L99.55,519.6l.4-2.306.788-4.691,2.273-2.208,1.137-1.1Z" transform="translate(-34.143 -172.506)" opacity="0.1"/><path d="M181.329,516.54l-1.314,7.1-1.9,10.48-1.189,6.57-26.2,143.955c-2.4,5.913-4.146,4.6-5.184,2.477a9.3,9.3,0,0,1-.749-5.657l20.23-119.08,1.137-6.708.848-4.993,1.176-6.9,3.285-19.579.657-3.876Z" transform="translate(-99.325 -205.892)" fill="#d48a9b"/><path d="M.96,387.906l15.769,31.222L442.523,393.9,378.811,370.56Z" transform="translate(-0.329 -127.093)" fill="#eec5cd"/><path d="M.631,396.96,0,422.505l16.084,33.752.315-28.075Z" transform="translate(0 -136.148)" fill="#d48a9b"/><path d="M89.423,476.17h6.623l-1.459,5.966-6.748.447Z" transform="translate(-30.127 -163.314)" opacity="0.1"/><path d="M110.544,476.595l9.146-3.785-1.294,7.109-8.515.552Z" transform="translate(-37.686 -162.162)" opacity="0.1"/><path d="M142.037,475.69h4.731l-4.2,4.238-5.243.348Z" transform="translate(-47.097 -163.15)" opacity="0.1"/><path d="M517.579,451.21l3.942,3.87-5.677.374-2.674-2.674Z" transform="translate(-176.002 -154.754)" opacity="0.1"/><path d="M539.631,446.89l.788,5.92-6.531.434-.558-4.152Z" transform="translate(-182.917 -153.272)" opacity="0.1"/><path d="M573.884,448.543l-6.9.453-1.025-3.962,5.368-6.314Z" transform="translate(-194.108 -150.47)" opacity="0.1"/><path d="M450.59,406.08l.631,25.23L24.48,459.385,24.8,431.31Z" transform="translate(-8.396 -139.275)" fill="#d48a9b"/><path d="M34.56,450.335l98.094-4.415.315,17.346-97.779,4.1Z" transform="translate(-11.853 -152.939)" opacity="0.1"/><path d="M33.12,448.9l98.094-4.415.315,17.346-97.779,4.106Z" transform="translate(-11.359 -152.446)" fill="#fff"/><path d="M193.611,438.21l221.721-12.93-.315,16.4L192.98,455.871Z" transform="translate(-66.187 -145.861)" opacity="0.1"/><path d="M192.171,436.77,413.9,423.84l-.315,16.4L191.54,454.431Z" transform="translate(-65.693 -145.367)" fill="#fff"/><path d="M537.17,421.521,621.7,416.16l.631,16.084-84.211,5.677Z" transform="translate(-184.234 -142.733)" opacity="0.1"/><path d="M535.73,420.081l84.527-5.361.631,16.084-84.211,5.677Z" transform="translate(-183.74 -142.239)" fill="#fff"/><rect width="11.991" height="0.946" transform="matrix(1, -0.026, 0.026, 1, 65.902, 304.18)" opacity="0.1"/><rect width="11.991" height="0.946" transform="matrix(1, -0.026, 0.026, 1, 65.904, 303.234)" fill="#d48a9b"/><rect width="11.991" height="0.946" transform="matrix(1, -0.026, 0.026, 1, 298.039, 290.617)" opacity="0.1"/><rect width="11.991" height="0.946" transform="matrix(1, -0.026, 0.026, 1, 298.034, 289.671)" fill="#d48a9b"/><rect width="11.991" height="0.946" transform="matrix(1, -0.026, 0.026, 1, 167.778, 298.186)" opacity="0.1"/><rect width="11.991" height="0.946" transform="matrix(1, -0.026, 0.026, 1, 167.779, 297.24)" fill="#d48a9b"/><rect width="11.991" height="0.946" transform="matrix(1, -0.026, 0.026, 1, 391.079, 284.311)" opacity="0.1"/><rect width="11.991" height="0.946" transform="matrix(1, -0.026, 0.026, 1, 391.08, 283.365)" fill="#d48a9b"/><path d="M818.3,591.38l-11.36-.624-.762-32.6-.184-7.773,11.984-2.2.072,10.007Z" transform="translate(-276.431 -188.012)" fill="#d48a9b"/><path d="M779.329,604.312,720.978,640.58l-1.262,11.038,6.308.315v-7.884L764.191,622.6,718.14,679.693v8.831h7.569l-.631-9.777,53.3-60.558,6.623.631,56.143,63.712,1.261,10.723,7.569.315-1.262-11.038-44.474-55.512,29.652,20.5.631,8.83,5.992.315-.631-10.723L783.429,602.42Z" transform="translate(-246.301 -206.614)" fill="#d48a9b"/><path d="M771.088,508.378a104.081,104.081,0,0,0,13.8-22.385c4.014-8.883,8.417-19.139,8.752-22.175.657-5.677,16.715-17.03,34.376-17.661,11.518-.414,29.461-9.4,40.565-15.611a82.593,82.593,0,0,1,34.034-10.512c12.99-.979,25.2,1.57,19.054,16.643l-82.635,100s-70.433,12.411-74.757-7.543a16.078,16.078,0,0,0-1.005-2.93C762.421,524.317,762.2,519.4,771.088,508.378Z" transform="translate(-311.364 -172.73)" fill="#6c63ff"/><path d="M780.9,513.227a107.139,107.139,0,0,0,13.883-22.6c3.752-8.3,7.72-17.615,8.035-20.434.6-5.42,15.992-16.268,32.9-16.872,11.012-.394,28.18-8.975,38.8-14.908a79.055,79.055,0,0,1,32.569-10.033c12.431-.933,24.12,1.5,18.252,15.9L859.828,540.2s-80.815,11.465-85.085-7.5a19.48,19.48,0,0,0-1.012-2.943C772.982,527.9,772.876,523.293,780.9,513.227Z" transform="translate(-314.973 -175.595)" fill="#fff" opacity="0.2"/><path d="M893.706,601.913c-3.8,0-7.8,0-11.879-.039l-.177-7.766,11.978-2.208Z" transform="translate(-352.098 -231.738)" opacity="0.1"/><g transform="translate(471.839 409.682)" opacity="0.1"><path d="M878.842,657.479l-29.652-20.5,3.4,4.244,26.248,18.147.631,8.83,5.992.315-.112-1.9-5.88-.309Z" transform="translate(-763.086 -628.15)"/><path d="M730.14,651.706V653.6l35.374-19.875,2.792-3.463Z" transform="translate(-722.256 -625.845)"/><path d="M718.14,730.59v1.892h7.569l-.118-1.892Z" transform="translate(-718.14 -660.255)"/><path d="M726.847,674.742l-6.091-.3-.217,1.879,6.307.315Z" transform="translate(-718.963 -640.997)"/><path d="M846.032,698.606l-1.262-10.723-56.143-63.712L782,623.54,728.7,684.1l.118,1.761L782,625.432l6.623.631,56.143,63.712,1.262,10.723,7.569.315-.217-1.905Z" transform="translate(-721.762 -623.54)"/></g><path d="M572.409,531.647c10.348,8.252,16.826.611,16.826.611s17.451-12.438,17.838-14.185a16.569,16.569,0,0,1,1-3.081s2.871.493,2.871-.861,2.99-1.846,4.731-2.957,12.72-10.716,12.72-10.716.375-2.089,5.407-3.693c3.541-1.123,11.078-8.16,15.243-12.24.256-1.649,1.1-6.669,2.037-8.206a2.26,2.26,0,0,1,1.636-.716l.414-1.524a103.665,103.665,0,0,0,2.687-14.139c1.117-9.855,9.474-12.93,11.59-12.93s18.949-7.142,18.949-7.142l27.3-11.084s16.827-5.289,16.2-8.87a3.217,3.217,0,0,1,.039-1.143c.342-1.682,1.807-3.64,3.285-5.256a37.01,37.01,0,0,1,3.285-3.206l9.067-5.618.7-.434c-3.062-4.888-9.763-11.314-9.763-11.314s1.971-3.693,4.238-3.693c1.5,0,9.855-2.628,15.256-4.376-.559-5.979-1.662-24.2,5.19-27.891l8.206-4.435s-.289.657-.716,1.643l1.215-.657s-.145.309-.368.834c.243-.039.5-.066.762-.085.742-2.628,1.189-4.744.972-5.427-.545-1.715-.657-13.43,4.284-19.461l-3.942-11.452a2.247,2.247,0,0,1,1.426-2.852l10.21-3.43a2.214,2.214,0,0,1,.986-.1,2.286,2.286,0,0,1,2.457,1.5l2.9,8.43a34.485,34.485,0,0,1,3.7-.657c.861-1.551,1.9-3.049,1.741-4.77a8.308,8.308,0,0,0-1.045-2.825,32.308,32.308,0,0,1-2.773-8.154,3.581,3.581,0,0,1-.033-1.728c.427-1.386,2.241-1.866,3.016-3.1a4.28,4.28,0,0,0,.125-3.463c-.5-1.827-1.262-3.574-1.675-5.421a7.928,7.928,0,0,1,.46-5.519,8.751,8.751,0,0,1,3.285-3.081c.348-1.629,1.524-3.167,1.15-4.783-.223-.972-.992-1.774-1.137-2.76-.25-1.78,1.531-3.134,3.095-4.054L813.3,263c1.235-.729,2.516-1.472,3.837-2.083a13.47,13.47,0,0,1,7.884-1.905c3.515.44,6.419,2.95,8.587,5.716s3.87,5.913,6.3,8.449c4.441,4.658,10.913,6.9,15.769,11.17a10.886,10.886,0,0,1,3.134,4.133c2.024,5.368-2.963,10.907-2.93,16.636,0,5.02,3.877,9.2,7.884,12.293,1.7,1.314,3.614,2.766,3.942,4.875.263,1.629-.493,3.219-.959,4.8a15.768,15.768,0,0,0,.48,9.915c3.147,2.076,5.394,3.482,5.394,3.482s12.963,10.841,20.2,13.3a1.406,1.406,0,0,1,.736.44c1.971,1.216,7.47,4.652,8.489,6.452,1.248,2.221,9.724,10.591,4.238,13.548a30.572,30.572,0,0,1-10.223,3.449s-12.713,3.942-17.7,6.406a54.536,54.536,0,0,1-9.415,3.285,19.055,19.055,0,0,0,3.784,9.593h.138a15.632,15.632,0,0,0,2.1,2.28l-1.38.217.092.085c-3.614.578-7.332,1.15-10.894.335s-6.971-3.377-7.622-6.932c-.7-3.831,1.7-8.423-.907-11.334a5.663,5.663,0,0,0-3.285-1.675c-1.728,2.28-14.422,18.436-25.94,14.895,2.628,7,7.3,19.218,8.187,19.566,1.248.493-12.714,4.928-12.714,4.928s-2.746-.447-6.682-.821c0,.473.053.966.085,1.485.269,4.836.447,11.334-.388,13.141a9.24,9.24,0,0,0-.5,1.393,24.263,24.263,0,0,1-7.516,12.089l-1.215,1.018a16.36,16.36,0,0,0-3.942,5.171,20.177,20.177,0,0,1-11.826,10.223,26.155,26.155,0,0,1-12.3.736s-28.029,2.714-43.482,3.942-32.286,8.377-32.286,8.377a71.489,71.489,0,0,0-13.292,12.608c-.414.539-.808,1.084-1.2,1.629l2.4,4.231s-11.4,8.311-19.054,14.527v1.117c.374,8.252-10.6,19.829-10.6,19.829s-3.364,4.678-5.112,7.024,3,3.817,3,3.817-7.884,2.214-4.737,10.466.867,13.673.867,13.673l-4.6,22.043h-9.645l1.872-15.269c-3.364-.25-12.339,13.541-12.339,13.541s-23.436-3.568-27.674-4.8-3.489-9.113,4.6-7.385a13.936,13.936,0,0,0,12.963-3.817s5.736-6.656,8.975-23.653a123.439,123.439,0,0,1,4.172-14.737c-4.448,6.754-6.912,16.662-7.884,17.2-1.373.736-18.568,20.2-18.568,20.2l-6.78-6.656,11.643-13.541s-10.6.118-14.961,3.075-10.118,1.478-10.118,1.478-13.213-10.466-16.426-14.409S562.061,523.369,572.409,531.647Z" transform="translate(-243.52 -117.543)" fill="url(#a)"/><path d="M866.791,406.339s5.644-1.721,5.4,1.222,2.944,5.651,2.944,5.651l-5.158,13.509-11.537-4.179L862.093,411Z" transform="translate(-344.137 -167.925)" fill="#575989"/><path d="M866.791,406.339s5.644-1.721,5.4,1.222,2.944,5.651,2.944,5.651l-5.158,13.509-11.537-4.179L862.093,411Z" transform="translate(-344.137 -167.925)" fill="#ffd7e3"/><path d="M912.808,295.6c-1.748,1-3.594,2.083-4.547,3.857a8.044,8.044,0,0,0-.46,5.506c.4,1.833,1.163,3.587,1.656,5.4a4.427,4.427,0,0,1-.125,3.456c-.762,1.235-2.549,1.708-2.976,3.095a3.641,3.641,0,0,0,.039,1.721,32.629,32.629,0,0,0,2.727,8.127,8.2,8.2,0,0,1,1.031,2.819c.25,2.746-2.529,4.928-2.766,7.667a8.66,8.66,0,0,0,1.117,4.258,9.02,9.02,0,0,0,2.766,3.995,7.053,7.053,0,0,0,5.867.513c1.925-.552,3.771-1.511,5.736-1.971,1.813-.453,3.765-.512,5.414-1.386,2.805-1.485,3.975-4.823,4.8-7.884a12.5,12.5,0,0,0,.526-6.294,20.64,20.64,0,0,0-1.689-3.752,28,28,0,0,0-2.273-4.6c-1.005-1.373-2.359-2.411-2.766-3.995-.473-1.833.539-3.666,1.38-5.355a37.1,37.1,0,0,0,1.906-4.6,8.207,8.207,0,0,0,.558-3.975c-.486-2.773-3.351-4.455-6.064-5.2-1.971-.539-4.1-.782-6.051-1.5a9.366,9.366,0,0,0-2.582-.979A5.921,5.921,0,0,0,912.808,295.6Z" transform="translate(-360.542 -129.745)" fill="#3f2b3b"/><path d="M697.72,567.568l22.766,3.062h.072s22.714-27.135,23.081-27.254L769.3,534.29,786.5,529.25l2.333-11.169-22.838-.861-7.49,1.1L731.61,529.382s-16.577,7.122-18.666,7.122-10.315,3.068-11.419,12.891a102.79,102.79,0,0,1-2.628,14.093C698.219,566.024,697.72,567.568,697.72,567.568Z" transform="translate(-289.015 -206.125)" fill="#c77486"/><path d="M697.72,567.928l22.766,3.062h.072s22.714-27.135,23.081-27.254L769.3,534.65,786.5,529.61l2.333-11.169-22.838-.861-7.49,1.1L731.61,529.742s-16.577,7.122-18.666,7.122-10.315,3.068-11.419,12.891a102.789,102.789,0,0,1-2.628,14.093C698.219,566.384,697.72,567.928,697.72,567.928Z" transform="translate(-289.015 -206.249)" opacity="0.05"/><path d="M801.61,518.16l-1.11,1.866s7.884,4.231,7.227,5.861l11.406-4.6Z" transform="translate(-324.266 -206.448)" opacity="0.1"/><path d="M697.72,590.708l22.766,3.062c1.472-5.256,2.628-9.08,2.628-9.08L707.4,587.4a40.277,40.277,0,0,0-8.541-.769C698.219,589.164,697.72,590.708,697.72,590.708Z" transform="translate(-289.015 -229.265)" opacity="0.1"/><path d="M679.575,589.64s-9.455-1.84-10.558,0-2.089,8.719-2.089,8.719S648.38,641.822,645.2,658.766s-8.844,23.574-8.844,23.574a13.64,13.64,0,0,1-12.773,3.811c-7.976-1.721-8.712,6.137-4.54,7.365s27.26,4.79,27.26,4.79,8.837-13.752,12.155-13.509l-1.84,15.23h9.455l4.54-21.984s2.208-5.4-.861-13.627,4.665-10.44,4.665-10.44-4.665-1.472-2.944-3.8,5.033-7,5.033-7,10.808-11.518,10.44-19.77,8.344-36.465,8.344-36.465Z" transform="translate(-261.173 -230.037)" fill="#d4dfec"/><path d="M679.575,589.64s-9.455-1.84-10.558,0-2.089,8.719-2.089,8.719S648.38,641.822,645.2,658.766s-8.844,23.574-8.844,23.574a13.64,13.64,0,0,1-12.773,3.811c-7.976-1.721-8.712,6.137-4.54,7.365s27.26,4.79,27.26,4.79,8.837-13.752,12.155-13.509l-1.84,15.23h9.455l4.54-21.984s2.208-5.4-.861-13.627,4.665-10.44,4.665-10.44-4.665-1.472-2.944-3.8,5.033-7,5.033-7,10.808-11.518,10.44-19.77,8.344-36.465,8.344-36.465Z" transform="translate(-261.173 -230.037)" opacity="0.1"/><path d="M679.051,693.09s-3.285,22.221-7.615,23.817S679.051,693.09,679.051,693.09Z" transform="translate(-279.676 -266.443)" opacity="0.1"/><path d="M689.232,666.36c-.368.368-10.559,13.633-14.612,13.752S689.232,666.36,689.232,666.36Z" transform="translate(-280.895 -257.276)" opacity="0.1"/><path d="M721.64,563.973s11.169,29.1,16.209,20.138a35.985,35.985,0,0,1,2.746-4.126A70.688,70.688,0,0,1,753.69,567.41s16.577-7.116,31.8-8.344,42.825-3.922,42.825-3.922l3.581-3.075c.368-19.888-39.783-29.218-39.783-29.218s-30.7,12.648-42.24,16.327-13.5,9.2-13.5,9.2l-11.518,12.188Z" transform="translate(-297.219 -208.056)" fill="#c77486"/><path d="M721.64,583.65s11.169,29.1,16.209,20.138a35.975,35.975,0,0,1,2.746-4.126l-1.84-3.285a54.751,54.751,0,0,0-9.856-12.871,24.243,24.243,0,0,0-4.021-3.285Z" transform="translate(-297.219 -227.732)" opacity="0.1"/><path d="M681.9,593.692s-10.315-12.641-13.141-11.294-15.716,10.926-15.716,10.926-12.924,13.508-17.878,15.112-5.328,3.686-5.328,3.686-10.775,9.566-12.523,10.677-4.672,1.6-4.672,2.943-2.819.861-2.819.861a16.645,16.645,0,0,0-.985,3.068c-.368,1.721-17.556,14.12-17.556,14.12s-6.386,7.615-16.577-.585-7.615,2.7-4.422,6.629S586.49,664.2,586.49,664.2s5.644,1.472,9.948-1.478,14.737-3.095,14.737-3.095L599.71,673.14l6.675,6.63s16.938-19.4,18.292-20.138,5.407-19.054,13.515-22.714c0,0,23.081-8.844,30.572-15.112s20.138-15.6,20.138-15.6Z" transform="translate(-244.336 -228.445)" fill="#d4dfec"/><path d="M625,666.344c.736-.368,17.083,2.582,13.633,4.363S625,666.344,625,666.344Z" transform="translate(-264.074 -257.259)" opacity="0.1"/><path d="M651.93,654.4c.736.493,9.455,2.582,7.227,4.915S651.93,654.4,651.93,654.4Z" transform="translate(-273.31 -253.174)" opacity="0.1"/><path d="M790.23,505.2s5.913.125,24.921,4.054S851.84,540.08,851.84,540.08a25.625,25.625,0,0,0,12.116-.736,19.96,19.96,0,0,0,11.662-10.2,16.271,16.271,0,0,1,3.87-5.158l1.2-1.012a24.212,24.212,0,0,0,7.4-12.083,8.543,8.543,0,0,1,.493-1.393c.821-1.787.657-8.265.375-13.088-.164-3.134-.375-5.565-.375-5.565L825.217,478.93l-3.6,2.247-8.929,5.6a35.589,35.589,0,0,0-3.252,3.2c-1.445,1.6-2.884,3.561-3.226,5.256a3.1,3.1,0,0,0-.033,1.15C806.8,499.922,790.23,505.2,790.23,505.2Z" transform="translate(-320.743 -192.993)" fill="#fff"/><path d="M933.787,329.606s6.137,8.6-1.472,24.31,32.194-9.087,32.194-9.087-14.98-22.6-12.773-26.767S933.787,329.606,933.787,329.606Z" transform="translate(-369.143 -137.578)" fill="#c77486"/><circle cx="19.402" cy="19.402" r="19.402" transform="translate(550.893 162.527)" opacity="0.1"/><circle cx="19.402" cy="19.402" r="19.402" transform="translate(550.893 161.056)" fill="#c77486"/><path d="M930.089,356.39s-6.38,10.145,13.141,4.5-15.348,38.554-15.348,38.554L914.13,385.2l5.4-25.046Z" transform="translate(-363.237 -150.965)" opacity="0.1"/><path d="M930.089,357.88s-6.38,10.151,13.141,4.5-15.348,38.554-15.348,38.554L914.13,386.7l5.4-25.053Z" transform="translate(-363.237 -151.476)" fill="#dce6f2"/><path d="M838,481.181a18.879,18.879,0,0,1,1.629,2.779c2.208,4.915,7.608,3.686,7.608,3.686,8.844,5.4,32.194,3.942,32.194,3.942s-5.158,8.594,4.665,5.644c6.038-1.807,15.112-1.393,21.248-.808-.164-3.134-.375-5.565-.375-5.565L841.614,478.94Z" transform="translate(-337.127 -192.996)" opacity="0.1"/><path d="M824.43,424.018s8.344,8.1,10.559,13.016,7.608,3.679,7.608,3.679c8.844,5.407,32.194,3.942,32.194,3.942s-5.158,8.594,4.665,5.644,27.746,0,27.746,0,13.758-4.422,12.53-4.908-9.855-24.31-9.855-24.31a10.093,10.093,0,0,1-.657-4.08,8.411,8.411,0,0,1,1.971-5.177,12.2,12.2,0,0,1,4.6-3.285c9.573-4.172,26.518-14.731,26.518-14.731s43.226-6.386,36.1-8.844-19.895-13.259-19.895-13.259-20.138-12.773-24.067-18.173-12.03-7.122-12.03-7.122l-11.242,8.351-20.44,18.173h0l-.985-11.025s-2.214-7.372-5.158-9.336-13.909,1.925-14.691,2.194h-.046s-11.294,32.661-10.8,38.554c.125,1.551-.565,3.752-1.643,6.15-.7,1.537-1.557,3.154-2.464,4.737a120.615,120.615,0,0,1-6.7,10.263s-17.438,5.913-19.645,5.913S824.43,424.018,824.43,424.018Z" transform="translate(-332.473 -147.542)" fill="#ffd7e3"/><path d="M849.67,336.167l2.214,9.7,21.242-11.544L871.1,316.89l-20.44,18.173v-.007Z" transform="translate(-291.412 -108.686)" opacity="0.1"/><path d="M848.18,334.677l2.208,9.7,21.248-11.537-2.03-17.438-20.447,18.173v-.013Z" transform="translate(-290.901 -108.175)" fill="#ffd7e3"/><path d="M870.88,432.68c8.049,1.669,44.021,9.2,54.251,12.779a8.442,8.442,0,0,1,1.971-5.184c-10.151-4.658-41.491-18.029-53.758-12.339C872.648,429.474,871.787,431.1,870.88,432.68Z" transform="translate(-348.404 -175.028)" opacity="0.1"/><path d="M870.88,429.689c8.049,1.669,44.021,9.2,54.251,12.779a8.442,8.442,0,0,1,1.971-5.184c-10.151-4.658-41.491-18.035-53.758-12.339C872.648,426.476,871.787,428.106,870.88,429.689Z" transform="translate(-348.404 -174.002)" opacity="0.1"/><path d="M870.88,431.182c8.049,1.675,44.021,9.231,54.251,12.779a8.41,8.41,0,0,1,1.971-5.177c-10.177-4.665-41.491-18.035-53.758-12.339C872.648,427.983,871.787,429.619,870.88,431.182Z" transform="translate(-348.404 -174.516)" fill="#ffd7e3"/><circle cx="2.516" cy="2.516" r="2.516" transform="translate(528.488 258.736)" fill="#feffff"/><circle cx="2.516" cy="2.516" r="2.516" transform="translate(519.96 276.351)" fill="#feffff"/><circle cx="2.516" cy="2.516" r="2.516" transform="translate(548.376 263.769)" fill="#feffff"/><circle cx="2.516" cy="2.516" r="2.516" transform="translate(538.186 282.186)" fill="#feffff"/><circle cx="2.516" cy="2.516" r="2.516" transform="translate(534.914 239.334)" fill="#feffff"/><path d="M938.05,452.85s10.315,25.355,7.884,28.791S938.05,452.85,938.05,452.85Z" transform="translate(-371.441 -184.048)" opacity="0.1"/><path d="M917.921,452.843c1.452-.361-6.137,6.813-7,13.384s-6.143,12.1-6.143,12.1l5.256-12.9S916.206,453.27,917.921,452.843Z" transform="translate(-360.031 -184.041)" opacity="0.1"/><path d="M868.424,449c-.743,1.1-10.94,3.068-12.043,14.487Z" transform="translate(-343.431 -182.728)" opacity="0.1"/><path d="M968.22,421.36c-1.229,1.1-15.112,10.434-20.013,10.618S968.22,421.36,968.22,421.36Z" transform="translate(-374.706 -173.248)" opacity="0.1"/><path d="M943.126,429.21s-2.089,2.943-4.179,2.943S943.126,429.21,943.126,429.21Z" transform="translate(-371.603 -175.94)" opacity="0.1"/><path d="M814.57,500.98c8.876.3,38.673,1.169,43-.079.414-.118-26.334-1.354-32.6-2.582a24.5,24.5,0,0,1-7.181-2.569C816.351,497.353,814.912,499.311,814.57,500.98Z" transform="translate(-329.091 -198.762)" opacity="0.1"/><path d="M889.81,512.56s14.75,10.8,8.3,10.926S889.81,512.56,889.81,512.56Z" transform="translate(-354.896 -204.527)" opacity="0.1"/><path d="M930.1,352.3c-.6,1.531-.105,1.781-.453,3.154a10.4,10.4,0,0,0-.282,3.883c.177,1.84-.979,4.028-.059,5.6a4.339,4.339,0,0,1,.368.716,2.122,2.122,0,0,1-.92,2.155,5.454,5.454,0,0,0-1.741,1.59c-.9,1.748.828,4.231,0,6.045a3.509,3.509,0,0,1-1.242,1.347,15.9,15.9,0,0,1-3.942,2.076c-.926-1.452.105-3.581-.7-5.118a6.88,6.88,0,0,0-1.662-1.689,9.265,9.265,0,0,1-2.365-5.066c-.342-1.886-.388-3.824-.762-5.7-.611-3.088-2.063-5.979-2.392-9.1a1.314,1.314,0,0,1,.1-.841,1.038,1.038,0,0,1,.841-.368c2.858-.243,5.985.519,8.732,0C926.192,350.521,927.874,349.929,930.1,352.3Z" transform="translate(-363.164 -148.966)" fill="#3f2b3b"/><path d="M892.89,359.179c.854,3.942,3.7,14.9,9.783,19.783,7.484,6.018,13.141,21.61,13.141,21.61l-1.715,4.054a12.251,12.251,0,0,0,3.679-1.721c1.722-1.229-4.054-25.539-4.054-25.539l-.979-11.051s-2.208-7.365-5.158-9.33C904.736,355.086,893.672,358.9,892.89,359.179Z" transform="translate(-355.953 -150.988)" opacity="0.1"/><path d="M893.64,357.676c.854,3.942,3.7,14.9,9.777,19.783,7.49,6.018,13.141,21.616,13.141,21.616l-1.721,4.047a12.218,12.218,0,0,0,3.686-1.715c1.721-1.229-4.054-25.539-4.054-25.539l-.979-11.032s-2.214-7.372-5.158-9.336S894.422,357.406,893.64,357.676Z" transform="translate(-356.21 -150.47)" fill="#ffd7e3"/><rect width="15.112" height="31.932" rx="1.7" transform="translate(526.373 199.557) rotate(-18.77)" fill="#464a5f"/><rect width="15.112" height="31.932" rx="1.7" transform="translate(525.824 199.561) rotate(-18.77)" fill="#d4dfec"/><circle cx="2.372" cy="2.372" r="2.372" transform="translate(533.37 203.69)" fill="#939498"/><path d="M867.05,407v.861l9.2-4.724.946-4.639,1.649-8.075s18.66-27.378,6.248-27.74-12.484,20.618-11.774,22.95c.526,1.675-2.911,11.905-4.9,17.589C867.615,405.473,867.05,407,867.05,407Z" transform="translate(-347.09 -153.123)" fill="#c77486"/><path d="M854.376,438.863s-3.193-25.3,4.915-29.717l8.1-4.415s-6.63,14.855-3.942,15.407,10.559-6.321,10.559-6.321v15.959Z" transform="translate(-342.531 -167.544)" opacity="0.1"/><path d="M867.05,425.7v.861l9.2-4.724.946-4.639c-2.5,1.971-6.82,5.138-8.679,4.763a.562.562,0,0,1-.112-.039C867.615,424.171,867.05,425.7,867.05,425.7Z" transform="translate(-347.09 -171.821)" opacity="0.1"/><path d="M853.677,437.363s-3.193-25.289,4.915-29.711l8.1-4.422s-6.629,14.862-3.942,15.414,10.559-6.327,10.559-6.327v15.966Z" transform="translate(-342.291 -167.03)" fill="#ffd7e3"/><circle cx="2.516" cy="2.516" r="2.516" transform="translate(554.763 244.985)" fill="#feffff"/><path d="M795.49,543.438s24.442-1.892,33.587-19.553c0,0,18.614-36.905,33.752-41.005s43.206-13.246,54.875-27.437,16.564-25.072,16.564-25.072,3,11.511-6.465,25.072-12.937,34.376-19.56,56.458-9.146,30.88-21.13,32.194c-9.034.953-56.8.473-79.639,0C800.01,543.918,795.49,543.438,795.49,543.438Z" transform="translate(-322.547 -176.338)" fill="#6c63ff"/><path d="M795.49,543.438s24.442-1.892,33.587-19.553c0,0,18.614-36.905,33.752-41.005s43.206-13.246,54.875-27.437,16.564-25.072,16.564-25.072,3,11.511-6.465,25.072-12.937,34.376-19.56,56.458-9.146,30.88-21.13,32.194c-9.034.953-56.8.473-79.639,0C800.01,543.918,795.49,543.438,795.49,543.438Z" transform="translate(-322.547 -176.338)" fill="#fff" opacity="0.2"/><path d="M804.85,545.371s23.364-1.833,32.109-18.936c0,0,17.786-35.729,32.254-39.7s41.3-12.832,52.457-26.57S937.5,435.89,937.5,435.89s2.865,11.169-6.183,24.277-12.359,33.285-18.692,54.639-8.738,29.928-20.2,31.15c-8.633.92-54.29.453-76.123,0C809.167,545.831,804.85,545.371,804.85,545.371Z" transform="translate(-325.758 -178.231)" fill="#6c63ff"/><path d="M989.148,428.27s-11.3.736-14.737,2.089c-1.827.716-6.478,1.314-10.434,1.754a21.163,21.163,0,0,0-14.455,7.806c-3.219,4.08-4.842,9.12,1.537,12.924,12.773,7.615,28.252-13.995,28.252-13.995l13.5-1.971Z" transform="translate(-374.405 -175.618)" fill="#c77486"/><path d="M1003.09,418.644c4.415-.309,9.33,20.2,9.33,20.2s8.1-1.721,13.016-4.179,17.438-6.38,17.438-6.38a29.83,29.83,0,0,0,10.066-3.443c5.4-2.944-2.95-11.294-4.172-13.5s-9.087-6.879-9.087-6.879l-6.143-1.229-27.746,4.915,17.924,4.172-2.234.69-6.012,1.84Z" transform="translate(-393.748 -167.03)" fill="#ffd7e3"/><path d="M1021.93,419.936l5.3,14.172c10.683,8.344,9.856-3.285,9.856-3.285l-9.113-12.753Z" transform="translate(-400.21 -172.12)" fill="#ffd7e3"/><path d="M1023.37,420.656l5.3,14.172c10.683,8.344,9.856-3.285,9.856-3.285l-9.113-12.753Z" transform="translate(-400.704 -172.367)" opacity="0.1"/><circle cx="2.516" cy="2.516" r="2.516" transform="translate(630.952 258.736)" fill="#feffff"/><path d="M916.895,289.357a3.469,3.469,0,0,1-2.845-3.351c0-1.919,1.649-3.679,1.215-5.552-.217-.966-.972-1.767-1.117-2.753-.25-1.774,1.511-3.121,3.049-4.041l13.633-8.154c3.252-1.971,6.82-3.942,10.572-3.482,3.463.44,6.321,2.937,8.463,5.7s3.8,5.913,6.2,8.423c4.376,4.639,10.749,6.879,15.506,11.13a10.913,10.913,0,0,1,3.088,4.12c1.971,5.348-2.917,10.874-2.884,16.59,0,5.007,3.817,9.159,7.753,12.254,1.676,1.314,3.555,2.76,3.89,4.862.263,1.623-.48,3.206-.939,4.783-2.352,8.029,2.773,16.531,9.349,21.682,1.971,1.544,4.185,3.081,4.9,5.466,1.064,3.5-1.57,6.919-3.811,9.809-3.942,5.059-7.227,10.821-8.173,17.155s.762,13.311,5.539,17.589c-3.561.572-7.227,1.143-10.736.328s-6.866-3.364-7.5-6.905c-.69-3.817,1.669-8.4-.9-11.307-1.971-2.208-5.414-1.794-8.338-2.181a13.627,13.627,0,0,1-11.452-12.484c-.191-4.33,1.734-8.423,3.226-12.484s2.576-8.693.775-12.635c-2.9-6.347-12.359-8.995-12.766-15.959-.243-4.093,3-8.265,1.314-12-1.123-2.516-4-3.633-6.15-5.348-3.384-2.694-5.02-6.951-7.227-10.657a50.636,50.636,0,0,0-6.386-8.193c-.769-.828-2.227-3-3.384-3.285C919.4,288.2,918.36,289.581,916.895,289.357Z" transform="translate(-363.21 -118.577)" opacity="0.1"/><path d="M918.391,288.608a3.476,3.476,0,0,1-2.851-3.344c0-1.925,1.649-3.686,1.222-5.558-.224-.966-.979-1.767-1.117-2.753-.25-1.774,1.5-3.121,3.042-4.041l13.64-8.154c3.246-1.938,6.813-3.942,10.565-3.482,3.469.44,6.321,2.937,8.463,5.7s3.811,5.913,6.2,8.43c4.376,4.639,10.755,6.873,15.506,11.124a10.775,10.775,0,0,1,3.088,4.12c1.971,5.355-2.917,10.88-2.884,16.59.033,5.007,3.824,9.159,7.753,12.254,1.676,1.314,3.561,2.76,3.9,4.862.256,1.623-.486,3.206-.946,4.783-2.352,8.035,2.779,16.531,9.349,21.682,1.971,1.544,4.185,3.081,4.908,5.466,1.058,3.5-1.57,6.918-3.811,9.809-3.942,5.059-7.227,10.821-8.18,17.155s.769,13.318,5.539,17.589c-3.555.572-7.227,1.15-10.729.335s-6.866-3.371-7.51-6.912c-.657-3.817,1.675-8.4-.894-11.3-1.971-2.214-5.414-1.8-8.338-2.188a13.62,13.62,0,0,1-11.452-12.484c-.191-4.33,1.728-8.423,3.226-12.484s2.569-8.66.769-12.6c-2.9-6.347-12.352-8.988-12.766-15.959-.237-4.087,3.009-8.265,1.314-12-1.123-2.516-4-3.633-6.156-5.348-3.384-2.694-5.02-6.951-7.227-10.657a50.3,50.3,0,0,0-6.386-8.187c-.769-.834-2.227-3-3.39-3.285C920.895,287.458,919.857,288.838,918.391,288.608Z" transform="translate(-363.721 -118.321)" fill="#3f2b3b"/><path d="M917.2,286c-.223-.972-.979-1.767-1.117-2.753-.25-1.781,1.5-3.121,3.049-4.041l.315-.191a2.411,2.411,0,0,0-.171,1.314c.138.986.893,1.787,1.117,2.753.427,1.873-1.2,3.633-1.222,5.552a3.476,3.476,0,0,0,2.851,3.351c1.465.223,2.5-1.156,3.844-.854,1.163.263,2.628,2.431,3.39,3.285a50.633,50.633,0,0,1,6.386,8.193c2.234,3.706,3.863,7.963,7.227,10.657,2.155,1.715,5.033,2.832,6.156,5.348,1.675,3.738-1.57,7.884-1.314,12,.407,6.965,9.855,9.612,12.759,15.959,1.8,3.942.723,8.541-.769,12.635s-3.417,8.16-3.226,12.484a13.62,13.62,0,0,0,11.452,12.484c2.924.388,6.386,0,8.338,2.188,2.569,2.9.21,7.484.894,11.3.657,3.541,4,6.091,7.51,6.905a18.4,18.4,0,0,0,5.473.348,15.681,15.681,0,0,0,2.07,2.2c-3.555.578-7.227,1.15-10.729.335s-6.866-3.364-7.5-6.912c-.657-3.817,1.669-8.4-.9-11.3-1.971-2.214-5.414-1.794-8.338-2.181a13.627,13.627,0,0,1-11.452-12.484c-.191-4.33,1.728-8.43,3.226-12.484s2.576-8.692.769-12.635c-2.9-6.347-12.352-8.988-12.76-15.953-.243-4.093,3-8.265,1.314-12.01-1.123-2.51-4-3.627-6.156-5.342-3.384-2.7-5.013-6.958-7.227-10.664a50.6,50.6,0,0,0-6.386-8.187c-.769-.828-2.227-3-3.384-3.285-1.314-.3-2.385,1.078-3.85.854a3.482,3.482,0,0,1-2.851-3.351C915.993,289.638,917.623,287.877,917.2,286Z" transform="translate(-363.872 -124.429)" opacity="0.1"/><path d="M776.05,584.177s12.773,4.888,20.026,2.208,25.23-10.565,25.23-10.565S791.03,577.712,776.05,584.177Z" transform="translate(-315.88 -226.223)" opacity="0.1"/><path d="M610.609,383.17s-3.016,14.041,10.407,15.71l.828-1.564S611.423,387.539,610.609,383.17Z" transform="translate(-259.039 -160.15)" fill="#6c63ff"/><path d="M628.275,393.514l-3.121.657-.315.066s-8.325-6.761-8.219-21.846a37.533,37.533,0,0,0,3.942,6.288C623.9,383.054,627.651,388.881,628.275,393.514Z" transform="translate(-261.2 -156.453)" fill="#6c63ff"/><path d="M632.125,392.246a1.971,1.971,0,0,1-1.675.223c-8.016-1.873-5.309-27.989-5.309-27.989.447.21.933,3.528,2.773,7.819C631.119,379.835,634.674,390.36,632.125,392.246Z" transform="translate(-263.972 -153.74)" fill="#6c63ff"/><path d="M655.828,383.17s.519,14.041-12.9,15.71l-.835-1.564S655.007,387.539,655.828,383.17Z" transform="translate(-269.936 -160.15)" fill="#6c63ff"/><path d="M649.772,372.4c.1,15.112-10.716,21.846-10.716,21.846l-.315-.066-3.121-.657c.618-4.632,4.376-10.46,7.674-14.829A33.911,33.911,0,0,1,649.772,372.4Z" transform="translate(-267.717 -156.456)" fill="#6c63ff"/><path d="M637.69,390.879a4.9,4.9,0,0,1-1.787,1.367h0a3.366,3.366,0,0,1-.657.223c-1.971.46-2.661-.966-2.543-3.377.184-4.3,2.884-11.761,5.315-17.346a21.487,21.487,0,0,1,5.033-7.267C643.045,364.48,642.927,384.815,637.69,390.879Z" transform="translate(-266.712 -153.74)" fill="#6c63ff"/><path d="M634.607,350.54s-8.949,31.734-1.248,36.524S636.584,353.352,634.607,350.54Z" transform="translate(-265.869 -148.959)" fill="#6c63ff"/><path d="M610.609,383.17s-3.016,14.041,10.407,15.71l.828-1.564S611.423,387.539,610.609,383.17Z" transform="translate(-259.039 -160.15)" opacity="0.1"/><path d="M628.275,393.514l-3.121.657-.315.066s-8.325-6.761-8.219-21.846a37.533,37.533,0,0,0,3.942,6.288C623.9,383.054,627.651,388.881,628.275,393.514Z" transform="translate(-261.2 -156.453)" opacity="0.1"/><path d="M632.125,392.246a1.971,1.971,0,0,1-1.675.223c-8.016-1.873-5.309-27.989-5.309-27.989.447.21.933,3.528,2.773,7.819C631.119,379.835,634.674,390.36,632.125,392.246Z" transform="translate(-263.972 -153.74)" opacity="0.1"/><path d="M655.828,383.17s.519,14.041-12.9,15.71l-.835-1.564S655.007,387.539,655.828,383.17Z" transform="translate(-269.936 -160.15)" opacity="0.1"/><path d="M649.772,372.4c.1,15.112-10.716,21.846-10.716,21.846l-.315-.066-3.121-.657c.618-4.632,4.376-10.46,7.674-14.829A33.911,33.911,0,0,1,649.772,372.4Z" transform="translate(-267.717 -156.456)" opacity="0.1"/><path d="M637.69,390.879a4.9,4.9,0,0,1-1.787,1.367h0a3.366,3.366,0,0,1-.657.223c-1.971.46-2.661-.966-2.543-3.377.184-4.3,2.884-11.761,5.315-17.346a21.487,21.487,0,0,1,5.033-7.267C643.045,364.48,642.927,384.815,637.69,390.879Z" transform="translate(-266.712 -153.74)" opacity="0.1"/><path d="M634.607,350.54s-8.949,31.734-1.248,36.524S636.584,353.352,634.607,350.54Z" transform="translate(-265.869 -148.959)" opacity="0.1"/><path d="M610.72,383.17s-1.767,14.041,11.656,15.71l.828-1.564S611.535,387.539,610.72,383.17Z" transform="translate(-259.15 -160.15)" fill="#6c63ff"/><path d="M629.524,393.514l-3.121.657-.315.066s-9.573-6.761-9.468-21.846c0,0,2.451,2.628,5.256,6.288C625.148,383.054,628.9,388.881,629.524,393.514Z" transform="translate(-261.2 -156.453)" fill="#6c63ff"/><path d="M632.251,396.8l-3.121.657c-2.963-2.628-4.133-9.376-4.56-15.493C627.875,386.336,631.627,392.164,632.251,396.8Z" transform="translate(-263.927 -159.735)" opacity="0.1"/><path d="M633.5,392.246a1.971,1.971,0,0,1-1.675.223c-8.016-1.873-6.57-27.989-6.57-27.989.447.21,2.181,3.528,4.021,7.819C632.524,379.835,636.078,390.36,633.5,392.246Z" transform="translate(-264.128 -153.74)" fill="#6c63ff"/><path d="M656.484,383.17s1.767,14.041-11.656,15.71L644,397.316S655.662,387.539,656.484,383.17Z" transform="translate(-270.591 -160.15)" fill="#6c63ff"/><path d="M650.424,372.4c.1,15.112-9.468,21.846-9.468,21.846l-.315-.066-3.121-.657c.618-4.632,4.376-10.46,7.674-14.829C647.973,375.028,650.424,372.4,650.424,372.4Z" transform="translate(-268.368 -156.456)" fill="#6c63ff"/><path d="M645.194,382c-.4,5.7-1.445,11.978-3.975,14.908a4.87,4.87,0,0,1-.578.585l-3.121-.657C638.138,392.177,641.9,386.35,645.194,382Z" transform="translate(-268.368 -159.749)" opacity="0.1"/><path d="M639.59,390.879a4.9,4.9,0,0,1-1.787,1.367h0a3.366,3.366,0,0,1-.657.223c-1.971.46-2.661-.966-2.543-3.377.184-4.3,2.884-11.761,5.315-17.346,1.748-4.021,3.357-7.063,3.784-7.267C643.7,364.48,644.827,384.815,639.59,390.879Z" transform="translate(-267.364 -153.74)" fill="#6c63ff"/><path d="M635.414,396.327a2.221,2.221,0,0,1-1.261-.4c-3.771-2.352-3.85-11.169-2.95-19.547C634.435,383.916,637.99,394.442,635.414,396.327Z" transform="translate(-266.039 -157.821)" opacity="0.1"/><path d="M639.6,394.673c-.434.94-1.018,1.439-1.787,1.367h0a2.438,2.438,0,0,1-1.071-.4,5.69,5.69,0,0,1-2.129-2.753c.184-4.3,2.884-11.761,5.315-17.346C640.78,383.286,641.075,391.5,639.6,394.673Z" transform="translate(-267.37 -157.533)" opacity="0.1"/><path d="M635.1,350.54s-7.7,31.734,0,36.524S637.081,353.352,635.1,350.54Z" transform="translate(-266.366 -148.959)" fill="#6c63ff"/><path d="M566.98,360.02H534.93v5.309h4.895l.118.624,1.958,10.3h18.627l1.964-10.3.118-.624h4.369Z" transform="translate(-183.465 -123.478)" fill="#4b4770"/><path d="M566.98,360.02H534.93v5.309h4.895l.118.624,1.958,10.3h18.627l1.964-10.3.118-.624h4.369Z" transform="translate(-183.465 -123.478)" opacity="0.1"/><path d="M567.26,364.77l-.532,2.812-1.965,10.3H546.137l-1.958-10.3-.539-2.812Z" transform="translate(-186.453 -125.107)" fill="#4b4770"/><path d="M567.26,364.77l-.532,2.812H544.179l-.539-2.812Z" transform="translate(-186.453 -125.107)" opacity="0.1"/><rect width="32.043" height="5.309" transform="translate(352.713 236.542)" fill="#4b4770"/><path d="M219.817,703.595a11.08,11.08,0,0,0-1.491,2.819c-.1.243-.184.526-.276.795a3.054,3.054,0,0,0-.519-.184,7.434,7.434,0,0,0-2.346-.2c0-.309.033-.657.046-.966.092-3.463-.315-8.285-3.614-6.242-3.173,1.971-.913,5.256,1.13,7.359l.526.519c-1.859,1.314-2.214,4.422-2.53,7.648s-3.049,6.748-4.849,8.765l-.512.552a6.669,6.669,0,0,0-5.256-1.36l-.243-.887c-1.472-5.315-4.527-14.52-8.423-16.537.164-.2.335-.414.512-.657,1.656-2.161,3.515-5.381.762-6.2s-3,2.792-2.845,5.493a5.635,5.635,0,0,0,.079.966,4.041,4.041,0,0,0-2.884,1.406l-.42-.506c-2.234-2.628-6.334-6.813-7.569-3.653-1.156,2.943,2.451,6.767,4.987,8.982l.158.138c-1.708,6.905,5.729,12.536,9.731,15l.512.315c-5.519,6.5-8.922,18.7-8.922,18.7l15.453,2.76s10.243-8.844,8.936-17.149a.56.56,0,0,0,.105,0c10.236-2.05,12.569-12.97,10.972-19.448l.184-.079a11.622,11.622,0,0,0,4.737-3.587C228.772,704.153,222.76,699.685,219.817,703.595Z" transform="translate(-111.065 -268.367)" fill="#6c63ff"/><path d="M219.817,703.595a11.08,11.08,0,0,0-1.491,2.819c-.1.243-.184.526-.276.795a3.054,3.054,0,0,0-.519-.184,7.434,7.434,0,0,0-2.346-.2c0-.309.033-.657.046-.966.092-3.463-.315-8.285-3.614-6.242-3.173,1.971-.913,5.256,1.13,7.359l.526.519c-1.859,1.314-2.214,4.422-2.53,7.648s-3.049,6.748-4.849,8.765l-.512.552a6.669,6.669,0,0,0-5.256-1.36l-.243-.887c-1.472-5.315-4.527-14.52-8.423-16.537.164-.2.335-.414.512-.657,1.656-2.161,3.515-5.381.762-6.2s-3,2.792-2.845,5.493a5.635,5.635,0,0,0,.079.966,4.041,4.041,0,0,0-2.884,1.406l-.42-.506c-2.234-2.628-6.334-6.813-7.569-3.653-1.156,2.943,2.451,6.767,4.987,8.982l.158.138c-1.708,6.905,5.729,12.536,9.731,15l.512.315c-5.519,6.5-8.922,18.7-8.922,18.7l15.453,2.76s10.243-8.844,8.936-17.149a.56.56,0,0,0,.105,0c10.236-2.05,12.569-12.97,10.972-19.448l.184-.079a11.622,11.622,0,0,0,4.737-3.587C228.772,704.153,222.76,699.685,219.817,703.595Z" transform="translate(-111.065 -268.367)" opacity="0.1"/><path d="M189.524,709.464l-1.807,5.3s-1-.71-2.267-1.826c-2.536-2.214-6.143-6.038-4.987-8.982,1.235-3.16,5.335,1.012,7.569,3.653C188.933,708.649,189.524,709.464,189.524,709.464Z" transform="translate(-111.535 -269.782)" fill="#6c63ff"/><path d="M199.076,705.032a25.024,25.024,0,0,1-1.761,2.076,25.621,25.621,0,0,1-.322-2.786c-.151-2.7.131-6.3,2.845-5.493S200.732,702.844,199.076,705.032Z" transform="translate(-117.269 -268.372)" fill="#6c63ff"/><path d="M232.94,706.089c-.059,1.741-.23,3.134-.23,3.134a22.792,22.792,0,0,1-2.254-2.017c-2.043-2.116-4.3-5.394-1.13-7.359C232.624,697.81,233.032,702.626,232.94,706.089Z" transform="translate(-127.828 -268.594)" fill="#6c63ff"/><path d="M247.469,709.909a11.624,11.624,0,0,1-4.737,3.587,12.737,12.737,0,0,1-1.59.578L239,711.085a21.133,21.133,0,0,1,.88-2.9,11.079,11.079,0,0,1,1.491-2.819C244.329,701.453,250.34,705.921,247.469,709.909Z" transform="translate(-131.687 -270.135)" fill="#6c63ff"/><path d="M190.752,710.09c.9,1.051,1.491,1.866,1.491,1.866l-1.807,5.3s-1-.709-2.267-1.826a10.3,10.3,0,0,1,2.03-4.645C190.384,710.524,190.575,710.3,190.752,710.09Z" transform="translate(-114.254 -272.274)" opacity="0.1"/><path d="M199.093,707.96a25.024,25.024,0,0,1-1.761,2.076,25.628,25.628,0,0,1-.322-2.786,3.646,3.646,0,0,1,2.083.71Z" transform="translate(-117.286 -271.3)" opacity="0.1"/><path d="M204.887,729.453l-4.494,1.971A27.146,27.146,0,0,1,198,730.07c-4.724-2.9-14.225-10.217-7.884-18.837s11.675,6.84,13.8,14.4C204.545,727.9,204.887,729.453,204.887,729.453Z" transform="translate(-114.197 -271.794)" fill="#6c63ff"/><path d="M231.87,710.717a3.725,3.725,0,0,1,2.484-1.117c-.059,1.741-.23,3.134-.23,3.134a22.787,22.787,0,0,1-2.254-2.017Z" transform="translate(-129.242 -272.106)" opacity="0.1"/><path d="M242.732,715.755a12.726,12.726,0,0,1-1.59.578L239,713.344a21.135,21.135,0,0,1,.88-2.9C241.267,711.242,242.285,713.239,242.732,715.755Z" transform="translate(-131.687 -272.394)" opacity="0.1"/><path d="M222.983,735.478c-.25.052-.5.1-.756.138-15.066,2.286-4.967-5.841-4.967-5.841s.657-.657,1.6-1.643c1.813-2.01,4.553-5.519,4.862-8.765.473-4.882,1.025-9.461,6.787-8.121C236.163,712.574,237.241,732.626,222.983,735.478Z" transform="translate(-123.095 -272.589)" fill="#6c63ff"/><rect width="28.784" height="7.569" transform="translate(70.821 500.398)" fill="#d4dfec"/><rect width="37.608" height="26.413" transform="translate(66.248 475.799)" fill="#d4dfec"/><rect width="28.784" height="7.569" transform="translate(70.821 500.398)" opacity="0.1"/><rect width="37.608" height="26.413" transform="translate(66.248 475.799)" opacity="0.1"/><rect width="28.784" height="7.569" transform="translate(72.713 500.398)" fill="#d4dfec"/><path d="M209.133,734.49c.657,2.26.972,3.811.972,3.811l-4.494,1.971a27.175,27.175,0,0,1-2.392-1.353C204.981,736.691,206.965,735.009,209.133,734.49Z" transform="translate(-119.416 -280.642)" opacity="0.1"/><path d="M222.983,744.416c-.25.053-.5.1-.756.138-15.066,2.286-4.967-5.841-4.967-5.841s.657-.657,1.6-1.643A9.953,9.953,0,0,1,222.983,744.416Z" transform="translate(-123.095 -281.527)" opacity="0.1"/><path d="M190.42,758.34s8.436-30.223,20.263-20.894-4.809,23.653-4.809,23.653Z" transform="translate(-115.026 -281.043)" fill="#6c63ff"/><circle cx="0.946" cy="0.946" r="0.946" transform="translate(78.706 443.237)" opacity="0.1"/><circle cx="0.946" cy="0.946" r="0.946" transform="translate(78.627 447.652)" opacity="0.1"/><circle cx="0.946" cy="0.946" r="0.946" transform="translate(106.071 444.104)" opacity="0.1"/><circle cx="0.946" cy="0.946" r="0.946" transform="translate(83.988 466.732)" opacity="0.1"/><circle cx="0.946" cy="0.946" r="0.946" transform="translate(104.1 451.436)" opacity="0.1"/><circle cx="0.946" cy="0.946" r="0.946" transform="translate(94.317 461.213)" opacity="0.1"/><circle cx="0.946" cy="0.946" r="0.946" transform="translate(81.938 445.129)" opacity="0.1"/><circle cx="0.946" cy="0.946" r="0.946" transform="translate(103.469 446.942)" opacity="0.1"/><circle cx="0.946" cy="0.946" r="0.946" transform="translate(100.23 454.275)" opacity="0.1"/><circle cx="0.946" cy="0.946" r="0.946" transform="translate(90.295 466.022)" opacity="0.1"/><circle cx="0.946" cy="0.946" r="0.946" transform="translate(88.246 461.371)" opacity="0.1"/><circle cx="0.946" cy="0.946" r="0.946" transform="translate(83.357 450.884)" opacity="0.1"/><rect width="28.784" height="2.766" transform="translate(72.713 500.398)" opacity="0.1"/><rect width="37.608" height="26.413" transform="translate(68.14 475.799)" fill="#d4dfec"/><circle cx="0.946" cy="0.946" r="0.946" transform="translate(91.557 470.28)" opacity="0.1"/><circle cx="0.946" cy="0.946" r="0.946" transform="translate(85.88 471.463)" opacity="0.1"/><path d="M692.522,438.293c0,2.852-6.13,6.209-13.7,6.209s-13.693-3.357-13.693-6.209,6.13-4.133,13.693-4.133S692.522,435.435,692.522,438.293Z" transform="translate(-277.838 -177.638)" fill="#e8eaf2"/><path d="M692.522,438.293c0,2.852-6.13,6.209-13.7,6.209s-13.693-3.357-13.693-6.209,6.13-4.133,13.693-4.133S692.522,435.435,692.522,438.293Z" transform="translate(-277.838 -177.638)" opacity="0.1"/><ellipse cx="13.699" cy="5.171" rx="13.699" ry="5.171" transform="translate(387.292 255.484)" fill="#e8eaf2"/><ellipse cx="7.746" cy="2.924" rx="7.746" ry="2.924" transform="translate(393.245 257.731)" opacity="0.1"/><path d="M699.219,428.425c-1.314,3.39-3.357,4.382-4.954,4.6a5.349,5.349,0,0,1-2.385-.243l.946-2.024a3.205,3.205,0,0,0,1.827,0,3.923,3.923,0,0,0,2.4-2.628c1.005-2.576-.25-2.95-1.124-2.937a3.449,3.449,0,0,0-.532.053l.749-1.6a5.089,5.089,0,0,1,.749-.131C698.312,423.379,701.078,423.648,699.219,428.425Z" transform="translate(-287.012 -173.979)" fill="#ffd7e3"/><path d="M688.322,440.964a12.17,12.17,0,0,1-10.572,0l.079-.769.053-.578,10.309-.2.079.92Z" transform="translate(-282.166 -179.442)" fill="#f1cec8"/><path d="M694.653,434.51a15.964,15.964,0,0,1-.388,2.28,5.346,5.346,0,0,1-2.385-.243l.946-2.024a3.207,3.207,0,0,0,1.827-.013Z" transform="translate(-287.012 -177.758)" opacity="0.1"/><path d="M698.728,423.53a2.223,2.223,0,0,1-.289.572l-.079.112c-.217.322-.414.657-.6.992a3.452,3.452,0,0,0-.532.053l.749-1.6A5.09,5.09,0,0,1,698.728,423.53Z" transform="translate(-288.847 -173.992)" opacity="0.1"/><path d="M688.31,440.34c-1.827.979-8.679,1.261-10.44-.145l.053-.578,10.309-.2Z" transform="translate(-282.207 -179.442)" opacity="0.1"/><path d="M689.874,421.978l-.079.112a10.184,10.184,0,0,0-1.735,5.02c-.322,4.435-.979,4.875-1.051,5.066-.532,1.347-9.731,1.873-11.11,0-1.143-1.551-2.254-4.908-1.741-6.794a3.75,3.75,0,0,0-.894-2.957,2.28,2.28,0,0,1,.611-3.252C676.5,417.5,681.1,417.4,681.1,417.4c3.942-.3,6.465.46,8,1.314l.2.118a2.267,2.267,0,0,1,.565,3.16Z" transform="translate(-280.479 -171.868)" fill="#ffd7e3"/><ellipse cx="6.984" cy="1.649" rx="6.984" ry="1.649" transform="translate(393.863 248.033)" opacity="0.1"/><ellipse cx="6.984" cy="1.649" rx="6.984" ry="1.649" transform="translate(393.863 248.23)" fill="#42312e"/><path d="M685.454,422.47s-5.02.164-4.875,1.971A12.655,12.655,0,0,1,685.454,422.47Z" transform="translate(-283.135 -173.629)" fill="#fff" opacity="0.2"/><path d="M688.81,423.17s-2.99,0-2.516,1.491c0,0,.7-.112.6-.493s1.918-.788,1.918-.788Z" transform="translate(-285.079 -173.869)" fill="#fff" opacity="0.2"/><path d="M673.93,422.47s-.2,3.075,7.635,2.9,7.792-2.208,7.884-2.9h-.427s-.1,2.51-7.319,2.444-7.418-2.444-7.418-2.444Z" transform="translate(-280.856 -173.629)" fill="#f6e2df"/><path d="M696.415,421.038l-4.724,2.523a.447.447,0,0,1-.559-.118l-.079-.1a.585.585,0,0,1,.138-.854l4.323-2.74a2.227,2.227,0,0,1,.9,1.288Z" transform="translate(-286.685 -172.696)" opacity="0.1"/><path d="M691.2,419.478l12.267-7.773a1.839,1.839,0,0,1,.92-.3c.618,0,1.491.1,1.215,1.091a1.853,1.853,0,0,1-.926,1.124l-12.957,6.925a.447.447,0,0,1-.559-.112l-.079-.1a.591.591,0,0,1,.118-.861Z" transform="translate(-286.692 -169.835)" fill="#e8eaf2"/><path d="M691.2,419.478l12.267-7.773a1.839,1.839,0,0,1,.92-.3c.618,0,1.491.1,1.215,1.091a1.853,1.853,0,0,1-.926,1.124l-12.957,6.925a.447.447,0,0,1-.559-.112l-.079-.1a.591.591,0,0,1,.118-.861Z" transform="translate(-286.692 -169.835)" opacity="0.1"/><path d="M691.2,419.328l12.267-7.773a1.84,1.84,0,0,1,.92-.3c.618,0,1.491.1,1.215,1.091a1.854,1.854,0,0,1-.926,1.124L691.717,420.4a.453.453,0,0,1-.559-.112l-.079-.1a.591.591,0,0,1,.118-.861Z" transform="translate(-286.692 -169.784)" fill="#e8eaf2"/><path d="M690.3,423.824s1.314-.283,1.137.066.565.782.565.782-1.353.322-1.557.125S690.3,423.824,690.3,423.824Z" transform="translate(-286.466 -174.056)" opacity="0.1"/><path d="M690.146,423.945s1.314-.276,1.137.066.565.788.565.788-1.353.322-1.557.125S690.146,423.945,690.146,423.945Z" transform="translate(-286.415 -174.098)" fill="#42312e"/><path d="M686.359,402.022a4.835,4.835,0,0,0-1.17,2.181,7.155,7.155,0,0,0,.072,2.273,12.712,12.712,0,0,0,.263,1.524c.072.289.263.6.4.407,0-.71-.151-1.406-.118-2.116a4.85,4.85,0,0,1,.657-2.089,10.558,10.558,0,0,0,.894-1.833c.1-.309.48-3.095-.046-2.628-.105.1-.23,1.012-.328,1.242A4.6,4.6,0,0,1,686.359,402.022Z" transform="translate(-284.697 -165.816)" fill="#f2dcdc"/><path d="M687.34,409.757c.039.263.256.453.355.7a1.67,1.67,0,0,1,.085.48,3.508,3.508,0,0,1-.348,2.313,1.61,1.61,0,0,0,.88-1.189,4.067,4.067,0,0,0,.118-.8,7.475,7.475,0,0,0,0-.769c0-.388.118-1.393-.361-1.583S687.34,409.389,687.34,409.757Z" transform="translate(-285.455 -168.964)" fill="#f2dcdc"/><path d="M674.938,428.74a2.943,2.943,0,0,0,2.254,1.012,4.317,4.317,0,0,1-2.372-.276Z" transform="translate(-281.161 -175.779)" opacity="0.1"/><path d="M374.519,341.08v31.669l-32.819.946V342.026Z" transform="translate(-117.193 -116.982)" fill="#464a5f"/><path d="M374.317,383.25l.171,4.908H341.669l-.059-3.016Z" transform="translate(-117.162 -131.445)" opacity="0.1"/><path d="M455.931,432.76l-51.051,1.892h0a5,5,0,0,1,5-5l41.071-1.892a5,5,0,0,1,5,5Z" transform="translate(-188.579 -175.443)" fill="#464a5f"/><path d="M484.686,323.939l-180.952,5.677a3.167,3.167,0,0,1-3.173-3.167V217.724a3.167,3.167,0,0,1,3.173-3.167l180.952-5.677a3.167,3.167,0,0,1,3.173,3.167V320.739a3.167,3.167,0,0,1-3.173,3.2Z" transform="translate(-152.801 -100.373)" fill="#464a5f"/><path d="M409.914,279.565,230.9,285.242V191.273l179.014-5.683Z" transform="translate(-79.192 -63.654)" fill="#6c63ff"/><ellipse cx="1.577" cy="1.557" rx="1.577" ry="1.557" transform="translate(239.323 116.785)" fill="#fff"/><path d="M374.524,348.158l-32.713.946v-.618l32.713-.946Z" transform="translate(-117.231 -119.198)" opacity="0.1"/><path d="M410.019,188.576,230.88,194.252v-3.246l179.139-5.677Z" transform="translate(-79.185 -63.565)" opacity="0.2"/><path d="M80.72,380.254l1.741,3.147,56.656-12.01-2.24-3.561Z" transform="translate(-27.685 -126.157)" fill="#464a5f"/><path d="M141.562,403.953l-8.574-50.893a1.623,1.623,0,0,1,1.426-1.886l65.046-6.938a1.623,1.623,0,0,1,1.781,1.4l6.084,44.573Z" transform="translate(-95.321 -146.793)" fill="#464a5f"/><path d="M141.562,403.953l-8.574-50.893a1.623,1.623,0,0,1,1.426-1.886l65.046-6.938a1.623,1.623,0,0,1,1.781,1.4l6.084,44.573Z" transform="translate(-95.321 -146.793)" opacity="0.1"/><path d="M143.079,403.953,134.5,353.059a1.629,1.629,0,0,1,1.432-1.886l65.046-6.938a1.623,1.623,0,0,1,1.781,1.4l6.084,44.573Z" transform="translate(-95.839 -146.793)" fill="#464a5f"/><path d="M65.72,313.6l7.043,43.239,58.8-12.1L126.1,306.31Z" transform="translate(-22.54 -105.057)" fill="#6c63ff"/><path d="M154.25,427l-.414-.828-7.786,1.735,19.836,30.3a2.556,2.556,0,0,0,2.858,1.058l69.645-20.243a2.562,2.562,0,0,0,.834-4.507l-26.991-20.44-5.631,1.314.243.578Z" transform="translate(-99.808 -170.751)" fill="#9c9ca1"/><path d="M154.25,427l-.414-.828-7.786,1.735,19.836,30.3a2.556,2.556,0,0,0,2.858,1.058l69.645-20.243a2.562,2.562,0,0,0,.834-4.507l-26.991-20.44-5.631,1.314.243.578Z" transform="translate(-99.808 -170.751)" opacity="0.1"/><path d="M155.77,427l-.414-.828-7.786,1.735,19.829,30.3a2.562,2.562,0,0,0,2.865,1.058l69.645-20.243a2.562,2.562,0,0,0,.834-4.507l-26.991-20.44-5.631,1.314.25.578Z" transform="translate(-100.33 -170.751)" fill="#9c9ca1"/><path d="M207.164,449.6l22.378-5.815a.447.447,0,0,1,.4.1l9.941,9.021a.434.434,0,0,1-.171.736L216.06,460.63a.44.44,0,0,1-.453-.138l-8.66-10.191a.44.44,0,0,1,.217-.7Z" transform="translate(-120.66 -180.934)" opacity="0.1"/><path d="M207.9,448.834l22.385-5.841a.434.434,0,0,1,.4.1l9.941,9.014a.434.434,0,0,1-.171.736L216.8,459.832a.44.44,0,0,1-.453-.138l-8.666-10.131a.427.427,0,0,1,.217-.729Z" transform="translate(-120.9 -180.663)" fill="#939498"/><g transform="translate(54.461 246.439)" opacity="0.1"><path d="M160.094,439.66l1.005,1.623a.2.2,0,0,0,.2.085l3.39-.756a.2.2,0,0,0,.118-.3l-1.124-1.564a.2.2,0,0,0-.2-.079l-3.285.7a.191.191,0,0,0-.112.289Z" transform="translate(-159.076 -425.622)"/><path d="M166.836,438.24l1.005,1.623a.2.2,0,0,0,.21.085l3.39-.756a.2.2,0,0,0,.112-.3l-1.124-1.564a.191.191,0,0,0-.2-.079l-3.285.7a.2.2,0,0,0-.112.289Z" transform="translate(-161.389 -425.134)"/><path d="M173.4,436.845l1.005,1.616a.191.191,0,0,0,.2.085l3.39-.756a.2.2,0,0,0,.118-.3L177,435.958a.21.21,0,0,0-.2-.079l-3.285.7a.2.2,0,0,0-.112.263Z" transform="translate(-163.645 -424.665)"/><path d="M179.835,435.472l.992,1.6a.2.2,0,0,0,.217.092l3.364-.749a.21.21,0,0,0,.125-.322l-1.1-1.544a.21.21,0,0,0-.217-.079l-3.246.7a.21.21,0,0,0-.131.309Z" transform="translate(-165.848 -424.18)"/><path d="M179.316,439.189l1.005,1.616a.191.191,0,0,0,.21.085l3.39-.756a.191.191,0,0,0,.112-.3l-1.124-1.57a.184.184,0,0,0-.2-.072l-3.285.7a.2.2,0,0,0-.112.289Z" transform="translate(-165.669 -425.459)"/><path d="M172.634,440.609l1.005,1.616a.184.184,0,0,0,.2.085l3.4-.756a.2.2,0,0,0,.112-.3l-1.124-1.564a.191.191,0,0,0-.2-.072l-3.285.7a.191.191,0,0,0-.112.289Z" transform="translate(-163.376 -425.947)"/><path d="M176.983,443.63l1.005,1.623a.2.2,0,0,0,.2.085l3.39-.756a.2.2,0,0,0,.112-.3l-1.124-1.564a.191.191,0,0,0-.2-.079l-3.285.7a.191.191,0,0,0-.105.289Z" transform="translate(-164.868 -426.983)"/><path d="M183.134,446.279l1.005,1.616a.2.2,0,0,0,.2.092l3.39-.756a.2.2,0,0,0,.118-.3l-1.124-1.564a.184.184,0,0,0-.2-.079l-3.285.7a.191.191,0,0,0-.112.289Z" transform="translate(-166.978 -427.891)"/><path d="M184.189,450.446l1.623,2.037a.2.2,0,0,0,.2.066l3.417-.887a.19.19,0,0,0,.1-.309l-1.675-2.05a.191.191,0,0,0-.2-.066l-3.364.907a.191.191,0,0,0-.105.3Z" transform="translate(-167.336 -429.245)"/><path d="M190.979,448.591l1.662,2.1a.2.2,0,0,0,.2.066l4.461-1.235a.191.191,0,0,0,.092-.309l-1.675-2.056a.2.2,0,0,0-.2-.066l-4.442,1.2a.2.2,0,0,0-.1.309Z" transform="translate(-169.665 -428.508)"/><path d="M177.545,452.095l1.623,2.037a.2.2,0,0,0,.2.066l3.417-.887a.191.191,0,0,0,.1-.309l-1.675-2.037a.184.184,0,0,0-.2-.059l-3.364.907a.191.191,0,0,0-.105.283Z" transform="translate(-165.062 -429.817)"/><path d="M170.516,453.912l1.623,2.03a.19.19,0,0,0,.2.066l3.417-.887a.2.2,0,0,0,.105-.309l-1.682-2.05a.191.191,0,0,0-.2-.066l-3.364.907a.191.191,0,0,0-.1.309Z" transform="translate(-162.645 -430.432)"/><path d="M186.284,433.9l.992,1.6a.2.2,0,0,0,.217.092l3.364-.749a.21.21,0,0,0,.125-.322l-1.1-1.564a.2.2,0,0,0-.21-.079l-3.285.7a.2.2,0,0,0-.1.329Z" transform="translate(-168.052 -423.635)"/><path d="M185.881,437.693l.992,1.6a.2.2,0,0,0,.217.092l3.364-.749a.21.21,0,0,0,.125-.322l-1.1-1.544a.2.2,0,0,0-.21-.079l-3.285.7a.2.2,0,0,0-.1.309Z" transform="translate(-167.918 -424.942)"/><path d="M192.563,432.473l.992,1.6a.21.21,0,0,0,.223.092l3.364-.749a.21.21,0,0,0,.118-.322l-1.1-1.544a.2.2,0,0,0-.21-.079l-3.252.7a.2.2,0,0,0-.131.309Z" transform="translate(-170.212 -423.151)"/><path d="M210.9,428.49l1.4,1.485a.171.171,0,0,0,.158.046l3-.7a.164.164,0,0,0,.079-.283l-1.577-1.485a.158.158,0,0,0-.151-.039l-2.825.7a.171.171,0,0,0-.085.276Z" transform="translate(-176.497 -421.796)"/><path d="M216.765,427.151l1.393,1.485a.158.158,0,0,0,.158.046l3-.69a.164.164,0,0,0,.079-.282l-1.577-1.491a.177.177,0,0,0-.151-.039l-2.825.7a.164.164,0,0,0-.079.276Z" transform="translate(-178.506 -421.338)"/><path d="M211.038,432.177l1.4,1.485a.158.158,0,0,0,.158.053l3.009-.664a.164.164,0,0,0,.072-.283l-1.57-1.485a.171.171,0,0,0-.158-.046l-2.825.7a.164.164,0,0,0-.085.237Z" transform="translate(-176.551 -423.073)"/><path d="M204.97,433.545l1.314,1.419a.2.2,0,0,0,.2.059l2.9-.657a.21.21,0,0,0,.1-.355l-1.5-1.419a.2.2,0,0,0-.191-.046l-2.74.657a.21.21,0,0,0-.079.342Z" transform="translate(-174.458 -423.521)"/><path d="M209.58,440.357l1.314,1.419a.217.217,0,0,0,.2.059l2.9-.657a.2.2,0,0,0,.1-.348l-1.5-1.419a.223.223,0,0,0-.191-.053l-2.74.657a.21.21,0,0,0-.079.342Z" transform="translate(-176.039 -425.858)"/><path d="M203.3,441.766l1.314,1.419a.21.21,0,0,0,.2.059l2.9-.657a.2.2,0,0,0,.1-.348l-1.452-1.439a.21.21,0,0,0-.191-.053l-2.74.657a.2.2,0,0,0-.131.361Z" transform="translate(-173.879 -426.334)"/><path d="M196.967,443.345l1.314,1.419a.2.2,0,0,0,.2.059l2.911-.657a.21.21,0,0,0,.092-.355l-1.5-1.419a.2.2,0,0,0-.191-.046l-2.74.657a.2.2,0,0,0-.079.342Z" transform="translate(-171.711 -426.881)"/><path d="M190.21,444.7l1.353,1.439a.21.21,0,0,0,.184.053l2.937-.657a.191.191,0,0,0,.085-.329l-1.524-1.439a.191.191,0,0,0-.177-.046l-2.766.657a.191.191,0,0,0-.092.322Z" transform="translate(-169.396 -427.352)"/><path d="M203.24,437.837l1.314,1.419a.2.2,0,0,0,.191.059l2.911-.657a.2.2,0,0,0,.092-.348l-1.5-1.419a.223.223,0,0,0-.191-.053l-2.74.657a.21.21,0,0,0-.079.342Z" transform="translate(-173.864 -424.994)"/><path d="M197.13,439.255l1.314,1.413a.2.2,0,0,0,.2.066l2.9-.657a.2.2,0,0,0,.1-.348l-1.5-1.419a.191.191,0,0,0-.191-.053l-2.74.657a.21.21,0,0,0-.079.342Z" transform="translate(-171.769 -425.479)"/><path d="M190.574,440.635l1.314,1.419a.19.19,0,0,0,.191.059l2.911-.657a.21.21,0,0,0,.092-.355l-1.5-1.419a.2.2,0,0,0-.191-.046l-2.74.657a.2.2,0,0,0-.079.342Z" transform="translate(-169.516 -425.952)"/><path d="M183.873,442.206l1.353,1.439a.21.21,0,0,0,.184.053l2.937-.657a.191.191,0,0,0,.092-.329l-1.524-1.439a.21.21,0,0,0-.184-.046l-2.766.657a.2.2,0,0,0-.092.322Z" transform="translate(-167.224 -426.499)"/><path d="M209.547,436.356l1.314,1.419a.21.21,0,0,0,.2.059l2.9-.657a.2.2,0,0,0,.1-.348l-1.5-1.419a.21.21,0,0,0-.191-.053l-2.74.657a.2.2,0,0,0-.079.342Z" transform="translate(-176.026 -424.485)"/><path d="M198.858,435.125l1.314,1.419a.217.217,0,0,0,.2.059l2.911-.657a.2.2,0,0,0,.092-.348l-1.5-1.419a.2.2,0,0,0-.191-.053l-2.733.657a.2.2,0,0,0-.085.342Z" transform="translate(-172.36 -424.063)"/><path d="M222.43,425.744l1.459,1.551a.138.138,0,0,0,.118.039l3.108-.723a.125.125,0,0,0,.053-.21l-1.649-1.551a.105.105,0,0,0-.112-.033l-2.917.723a.118.118,0,0,0-.059.2Z" transform="translate(-180.453 -420.871)"/><path d="M228.14,424.523l1.465,1.551a.125.125,0,0,0,.118.039l3.1-.723a.125.125,0,0,0,.059-.21l-1.649-1.557a.119.119,0,0,0-.112,0l-2.924.723a.118.118,0,0,0-.059.177Z" transform="translate(-182.417 -420.458)"/><path d="M233.989,423.205l1.314,1.439a.112.112,0,0,0,.118.039l2.9-.788a.131.131,0,0,0,.046-.217l-1.5-1.255a.119.119,0,0,0-.105,0l-2.733.6a.125.125,0,0,0-.039.177Z" transform="translate(-184.423 -420.047)"/><path d="M240.15,425.248l1.314,1.445a.131.131,0,0,0,.125.039l2.891-.788a.125.125,0,0,0,.046-.217l-1.491-1.255a.105.105,0,0,0-.105,0l-2.733.6a.118.118,0,0,0-.046.171Z" transform="translate(-186.537 -420.749)"/><path d="M239.4,429.208l1.268,1.367a.151.151,0,0,0,.164.046l2.786-.756a.171.171,0,0,0,.066-.289l-1.419-1.189a.138.138,0,0,0-.138-.039l-2.628.585a.164.164,0,0,0-.1.276Z" transform="translate(-186.269 -422.081)"/><path d="M234.386,434.282l1.268,1.373a.164.164,0,0,0,.164.046l2.786-.762a.164.164,0,0,0,.066-.283l-1.419-1.2a.151.151,0,0,0-.138-.033l-2.628.578a.164.164,0,0,0-.1.276Z" transform="translate(-184.551 -423.824)"/><path d="M228.367,435.858l1.268,1.367a.151.151,0,0,0,.164.046l2.786-.756a.171.171,0,0,0,.066-.289l-1.419-1.189a.138.138,0,0,0-.138-.039l-2.628.585a.164.164,0,0,0-.1.276Z" transform="translate(-182.486 -424.362)"/><path d="M240.06,432.8l1.268,1.373a.184.184,0,0,0,.164.046l2.786-.762a.164.164,0,0,0,.066-.289l-1.413-1.189a.19.19,0,0,0-.145-.039l-2.628.585a.171.171,0,0,0-.1.276Z" transform="translate(-186.499 -423.314)"/><path d="M239.067,437.145l1.912,1.721a.184.184,0,0,0,.158.033l2.766-.782a.164.164,0,0,0,.066-.282l-2.063-1.807a.164.164,0,0,0-.164-.033l-2.628.874a.158.158,0,0,0-.046.276Z" transform="translate(-186.15 -424.703)"/><path d="M228.9,428.087l1.314,1.445a.125.125,0,0,0,.125.033l2.891-.788a.118.118,0,0,0,.046-.21l-1.491-1.262a.158.158,0,0,0-.105,0l-2.733.6a.118.118,0,0,0-.046.177Z" transform="translate(-182.676 -421.722)"/><path d="M223.2,429.46l1.268,1.367a.171.171,0,0,0,.164.053l2.786-.762a.171.171,0,0,0,.066-.289l-1.413-1.189a.191.191,0,0,0-.145-.039l-2.628.585a.171.171,0,0,0-.1.276Z" transform="translate(-180.716 -422.169)"/><path d="M222.022,433.481l1.281,1.353a.158.158,0,0,0,.164.046l2.792-.762a.164.164,0,0,0,.059-.283l-1.413-1.2a.164.164,0,0,0-.145-.033l-2.628.578a.171.171,0,0,0-.112.3Z" transform="translate(-180.307 -423.542)"/><path d="M216.04,434.942l1.268,1.373a.171.171,0,0,0,.171.046l2.786-.762a.164.164,0,0,0,.059-.283l-1.413-1.2a.164.164,0,0,0-.145-.033l-2.628.578a.171.171,0,0,0-.1.276Z" transform="translate(-178.261 -424.05)"/><path d="M217.112,430.808l1.268,1.373a.151.151,0,0,0,.164.046l2.786-.762a.164.164,0,0,0,.066-.283l-1.419-1.2a.151.151,0,0,0-.138-.033l-2.628.585a.158.158,0,0,0-.1.276Z" transform="translate(-178.624 -422.63)"/><path d="M222.126,437.212l1.268,1.373a.164.164,0,0,0,.164.046l2.786-.762a.164.164,0,0,0,.066-.282l-1.419-1.2a.151.151,0,0,0-.138-.033l-2.628.578a.164.164,0,0,0-.1.276Z" transform="translate(-180.346 -424.829)"/><path d="M216.24,438.784l1.209,1.314a.191.191,0,0,0,.2.059l2.687-.729a.21.21,0,0,0,.079-.361l-1.314-1.13a.21.21,0,0,0-.177-.039l-2.549.559a.21.21,0,0,0-.138.328Z" transform="translate(-178.33 -425.356)"/><path d="M234.7,426.637l1.314,1.445a.125.125,0,0,0,.125.033l2.891-.788a.118.118,0,0,0,.046-.21l-1.491-1.262a.158.158,0,0,0-.105,0l-2.74.6a.125.125,0,0,0-.039.177Z" transform="translate(-184.666 -421.225)"/><path d="M233.88,430.552l1.268,1.373a.171.171,0,0,0,.164.046l2.792-.762a.164.164,0,0,0,.059-.283l-1.413-1.2a.164.164,0,0,0-.145-.033l-2.628.578a.171.171,0,0,0-.1.276Z" transform="translate(-184.379 -422.544)"/><path d="M228.116,432.14l1.262,1.367a.19.19,0,0,0,.171.053l2.786-.762a.171.171,0,0,0,.066-.289l-1.419-1.189a.19.19,0,0,0-.145-.039l-2.628.585a.164.164,0,0,0-.092.276Z" transform="translate(-182.4 -423.088)"/><path d="M204.915,429.8l1.393,1.485a.177.177,0,0,0,.158.046l3-.7a.164.164,0,0,0,.079-.283l-1.577-1.485a.158.158,0,0,0-.151-.039l-2.825.7a.164.164,0,0,0-.079.276Z" transform="translate(-174.442 -422.246)"/><path d="M198.8,431.275l1.314,1.419a.2.2,0,0,0,.2.059l2.9-.657a.21.21,0,0,0,.1-.355l-1.5-1.419a.2.2,0,0,0-.191-.046l-2.74.657a.2.2,0,0,0-.079.342Z" transform="translate(-172.339 -422.742)"/><path d="M192.284,436.34l.992,1.59a.2.2,0,0,0,.217.092l3.364-.749a.2.2,0,0,0,.125-.322l-1.11-1.537a.21.21,0,0,0-.21-.085l-3.246.7a.21.21,0,0,0-.131.315Z" transform="translate(-170.116 -424.476)"/><path d="M158.711,437.367l3.318-.769a.2.2,0,0,1,.2.072l.585.769a.191.191,0,0,1-.112.3l-3.436.8a.191.191,0,0,1-.21-.092l-.467-.8a.191.191,0,0,1,.125-.282Z" transform="translate(-158.56 -424.912)"/><path d="M165.645,435.856l3.285-.769a.184.184,0,0,1,.2.072l.585.762a.2.2,0,0,1-.112.309l-3.436.8a.2.2,0,0,1-.21-.092l-.466-.8a.191.191,0,0,1,.158-.283Z" transform="translate(-160.928 -424.392)"/><path d="M172.371,434.409l3.318-.762a.191.191,0,0,1,.2.066l.585.769a.191.191,0,0,1-.112.3l-3.436.8a.184.184,0,0,1-.21-.085l-.466-.8a.2.2,0,0,1,.125-.289Z" transform="translate(-163.245 -423.898)"/><path d="M178.923,432.926l3.325-.769a.184.184,0,0,1,.2.072l.578.762a.2.2,0,0,1-.105.309l-3.443.795a.2.2,0,0,1-.21-.085l-.467-.8a.2.2,0,0,1,.125-.282Z" transform="translate(-165.494 -423.388)"/><path d="M185.551,431.45l3.285-.762a.217.217,0,0,1,.21.079l.565.742a.21.21,0,0,1-.118.329l-3.41.795a.2.2,0,0,1-.223-.1l-.453-.775a.21.21,0,0,1,.145-.309Z" transform="translate(-167.759 -422.884)"/><path d="M192,430.109l3.285-.762a.2.2,0,0,1,.21.072l.565.749a.2.2,0,0,1-.118.322l-3.41.795a.21.21,0,0,1-.223-.1l-.453-.775a.21.21,0,0,1,.145-.3Z" transform="translate(-169.972 -422.424)"/><path d="M198.321,428.8l3.042-.736a.2.2,0,0,1,.2.059l.591.618a.21.21,0,0,1-.1.342l-3.009.756a.2.2,0,0,1-.2-.053l-.657-.657a.21.21,0,0,1,.131-.328Z" transform="translate(-172.139 -421.985)"/><path d="M204.477,427.379l3.134-.762a.171.171,0,0,1,.164.046l.657.69a.158.158,0,0,1-.079.269l-3.095.782a.171.171,0,0,1-.158-.046l-.7-.7a.164.164,0,0,1,.072-.276Z" transform="translate(-174.267 -421.488)"/><path d="M210.628,425.938l3.134-.762a.144.144,0,0,1,.158.046l.657.657a.164.164,0,0,1-.079.276l-3.095.782a.171.171,0,0,1-.158-.046l-.657-.7a.164.164,0,0,1,.039-.25Z" transform="translate(-176.391 -420.993)"/><path d="M216.735,424.68l3.134-.762a.178.178,0,0,1,.158.046l.657.69a.171.171,0,0,1-.085.276l-3.068.775a.171.171,0,0,1-.158-.039l-.69-.7a.171.171,0,0,1,.053-.283Z" transform="translate(-178.476 -420.563)"/><path d="M222.542,423.279l3.226-.782a.112.112,0,0,1,.118.033l.723.756a.118.118,0,0,1-.059.2l-3.187.8a.112.112,0,0,1-.118-.033l-.762-.775a.125.125,0,0,1,.059-.2Z" transform="translate(-180.473 -420.075)"/><path d="M228.4,422.027l3.233-.788a.118.118,0,0,1,.112.039l.723.756a.118.118,0,0,1-.059.2l-3.187.815a.112.112,0,0,1-.118-.033l-.762-.775a.125.125,0,0,1,.059-.217Z" transform="translate(-182.477 -419.644)"/><path d="M234.229,420.756l2.99-.657a.131.131,0,0,1,.125.046l.578.71a.118.118,0,0,1-.066.19l-2.806.742a.111.111,0,0,1-.118-.033l-.762-.769a.125.125,0,0,1,.059-.23Z" transform="translate(-184.472 -419.253)"/><path d="M239.813,419.475l2.99-.657a.118.118,0,0,1,.125.039l.572.71a.125.125,0,0,1-.059.2l-2.806.742a.164.164,0,0,1-.125-.033l-.756-.775a.125.125,0,0,1,.059-.223Z" transform="translate(-186.39 -418.813)"/><path d="M162.312,442.912l1.1,1.57a.184.184,0,0,0,.2.079l5.749-1.347a.191.191,0,0,0,.112-.3l-1.222-1.61a.191.191,0,0,0-.2-.066l-5.631,1.373a.2.2,0,0,0-.112.3Z" transform="translate(-159.835 -426.502)"/><path d="M164.984,446.009l1.1,1.748a.2.2,0,0,0,.21.085l6.945-1.649a.191.191,0,0,0,.105-.309l-1.373-1.7a.191.191,0,0,0-.2-.066l-6.669,1.6a.191.191,0,0,0-.118.289Z" transform="translate(-160.753 -427.489)"/><path d="M167.345,449.174l1.314,1.9a.191.191,0,0,0,.2.079l9.2-2.273a.2.2,0,0,0,.105-.309l-1.478-1.9a.2.2,0,0,0-.2-.072l-9.093,2.28a.191.191,0,0,0-.053.3Z" transform="translate(-161.556 -428.341)"/><path d="M199.4,444.534l1.682,2.03a.2.2,0,0,0,.2.066l20.243-5.053a.2.2,0,0,0,.092-.342l-2.063-2.057a.217.217,0,0,0-.2-.053L199.5,444.206a.2.2,0,0,0-.105.328Z" transform="translate(-172.549 -425.778)"/><path d="M231.2,438.643l1.971,1.971a.171.171,0,0,0,.164.046l4.146-1.11a.164.164,0,0,0,.072-.276l-2.056-2.017a.171.171,0,0,0-.158-.039l-4.067,1.17a.171.171,0,0,0-.072.256Z" transform="translate(-183.464 -425.123)"/><path d="M246.451,436.92l.907.953a.112.112,0,0,0,.118.033l3.068-.828a.118.118,0,0,0,.053-.2l-1.091-1.032a.131.131,0,0,0-.118,0l-2.884.9a.125.125,0,0,0-.053.177Z" transform="translate(-188.698 -424.649)"/><path d="M250.429,433.855l1.078,1.13a.125.125,0,0,0,.131.033l2.819-.979a.118.118,0,0,0,.046-.2l-1.078-.953a.112.112,0,0,0-.112,0l-2.845.795a.125.125,0,0,0-.039.177Z" transform="translate(-190.061 -423.633)"/><path d="M253.175,436.38l-.775-.657a.125.125,0,0,1,0-.21l2.812-.972a.112.112,0,0,1,.125,0l.88.848a.125.125,0,0,1-.059.21l-2.911.756A.118.118,0,0,1,253.175,436.38Z" transform="translate(-190.725 -424.2)"/><path d="M257.989,434.153c.243.23.657.7.828.854a.145.145,0,0,0,.125.033l2.924-.8a.125.125,0,0,0,.053-.21l-1.038-.933a.125.125,0,0,0-.125,0l-2.714.874a.118.118,0,0,0-.053.177Z" transform="translate(-192.654 -423.708)"/><path d="M245.487,430.757l1.564,1.511a.118.118,0,0,0,.118.033l7.543-1.971a.125.125,0,0,0,.053-.21l-1.833-1.518a.112.112,0,0,0-.112,0l-7.28,1.971a.118.118,0,0,0-.053.184Z" transform="translate(-188.365 -422.165)"/><path d="M244.689,427.482l1.616,1.439a.131.131,0,0,0,.112,0l5.677-1.314a.125.125,0,0,0,.046-.217l-1.859-1.557a.105.105,0,0,0-.105,0l-5.434,1.419a.125.125,0,0,0-.053.23Z" transform="translate(-188.08 -421.216)"/><path d="M245.495,424.03l1.531,1.367a.118.118,0,0,0,.112,0l2.911-.657a.125.125,0,0,0,.053-.217l-1.813-1.531a.112.112,0,0,0-.112,0l-2.628.841a.125.125,0,0,0-.053.2Z" transform="translate(-188.366 -420.241)"/><path d="M239.415,421.753l1.478,1.347a.138.138,0,0,0,.112,0l4.6-1.1a.118.118,0,0,0,.046-.21l-1.761-1.478a.145.145,0,0,0-.112,0l-4.343,1.229a.125.125,0,0,0-.02.21Z" transform="translate(-186.274 -419.324)"/></g><path d="M160.088,438.9l1.005,1.616a.19.19,0,0,0,.2.085l3.39-.756a.2.2,0,0,0,.118-.3l-1.124-1.583a.21.21,0,0,0-.2-.079l-3.285.7a.2.2,0,0,0-.112.315Z" transform="translate(-104.608 -178.913)" fill="#464a5f"/><path d="M166.837,437.486l1.005,1.616a.191.191,0,0,0,.21.085l3.39-.756a.2.2,0,0,0,.092-.289l-1.124-1.564a.191.191,0,0,0-.2-.072l-3.285.7a.2.2,0,0,0-.092.276Z" transform="translate(-106.929 -178.441)" fill="#464a5f"/><path d="M173.394,436.07l1.005,1.616a.184.184,0,0,0,.2.085l3.39-.756a.191.191,0,0,0,.118-.3l-1.124-1.57a.191.191,0,0,0-.2-.072l-3.285.7a.191.191,0,0,0-.112.289Z" transform="translate(-109.176 -177.951)" fill="#464a5f"/><path d="M179.834,434.67l.992,1.59a.2.2,0,0,0,.217.092l3.364-.749a.2.2,0,0,0,.125-.322l-1.1-1.537a.23.23,0,0,0-.217-.085l-3.246.7a.21.21,0,0,0-.131.315Z" transform="translate(-111.384 -177.465)" fill="#464a5f"/><path d="M179.316,438.48l1.005,1.623a.21.21,0,0,0,.21.085l3.39-.756a.2.2,0,0,0,.112-.3l-1.124-1.564a.191.191,0,0,0-.2-.079l-3.285.7a.2.2,0,0,0-.112.289Z" transform="translate(-111.208 -178.778)" fill="#464a5f"/><path d="M172.637,439.857l1.005,1.616a.2.2,0,0,0,.2.092l3.4-.756a.2.2,0,0,0,.112-.3l-1.124-1.551a.191.191,0,0,0-.2-.079l-3.285.7a.191.191,0,0,0-.112.276Z" transform="translate(-108.919 -179.255)" fill="#464a5f"/><path d="M176.984,442.879l1.005,1.616a.184.184,0,0,0,.2.085l3.4-.756a.2.2,0,0,0,.112-.3l-1.124-1.564a.191.191,0,0,0-.2-.072l-3.285.7a.191.191,0,0,0-.112.289Z" transform="translate(-110.407 -180.286)" fill="#464a5f"/><path d="M183.134,445.48l1.005,1.623a.191.191,0,0,0,.2.085l3.39-.756a.2.2,0,0,0,.118-.3l-1.124-1.564a.2.2,0,0,0-.2-.079l-3.285.7a.191.191,0,0,0-.112.289Z" transform="translate(-112.516 -181.179)" fill="#464a5f"/><path d="M184.189,449.692l1.623,2.03a.2.2,0,0,0,.2.066l3.417-.887a.191.191,0,0,0,.1-.309l-1.675-2.05a.191.191,0,0,0-.2-.066l-3.364.907a.2.2,0,0,0-.105.309Z" transform="translate(-112.875 -182.546)" fill="#464a5f"/><path d="M190.978,447.835l1.662,2.1a.2.2,0,0,0,.2.066l4.461-1.235a.191.191,0,0,0,.092-.309l-1.675-2.05a.2.2,0,0,0-.2-.066l-4.441,1.2a.191.191,0,0,0-.1.3Z" transform="translate(-115.203 -181.812)" fill="#464a5f"/><path d="M177.539,451.362l1.623,2.03a.2.2,0,0,0,.2.066l3.417-.887a.191.191,0,0,0,.1-.309l-1.675-2.05a.19.19,0,0,0-.2-.066l-3.364.907a.2.2,0,0,0-.105.309Z" transform="translate(-110.595 -183.119)" fill="#464a5f"/><path d="M170.518,453.156l1.623,2.037a.191.191,0,0,0,.2.066l3.417-.887a.2.2,0,0,0,.105-.309l-1.682-2.05a.191.191,0,0,0-.2-.066l-3.364.907a.191.191,0,0,0-.1.3Z" transform="translate(-108.186 -183.736)" fill="#464a5f"/><path d="M186.293,433.153l.992,1.6a.2.2,0,0,0,.217.092l3.364-.749a.21.21,0,0,0,.125-.322l-1.1-1.544a.2.2,0,0,0-.21-.079l-3.285.7a.21.21,0,0,0-.1.309Z" transform="translate(-113.599 -176.946)" fill="#464a5f"/><path d="M185.883,436.933l.992,1.6a.2.2,0,0,0,.217.092l3.364-.749a.2.2,0,0,0,.125-.322l-1.1-1.537a.21.21,0,0,0-.21-.085l-3.285.7a.21.21,0,0,0-.1.309Z" transform="translate(-113.458 -178.243)" fill="#464a5f"/><path d="M192.565,431.733l.992,1.6a.21.21,0,0,0,.223.092l3.364-.749a.21.21,0,0,0,.118-.322l-1.1-1.537a.21.21,0,0,0-.21-.085l-3.252.7a.21.21,0,0,0-.131.309Z" transform="translate(-115.752 -176.46)" fill="#464a5f"/><path d="M210.9,427.75l1.4,1.485a.158.158,0,0,0,.158.046l3-.7a.164.164,0,0,0,.079-.276l-1.577-1.491a.158.158,0,0,0-.151-.039l-2.825.7a.171.171,0,0,0-.085.276Z" transform="translate(-122.035 -175.104)" fill="#464a5f"/><path d="M216.765,426.4l1.393,1.478a.164.164,0,0,0,.158.053l3-.7a.164.164,0,0,0,.079-.283l-1.577-1.485a.158.158,0,0,0-.151-.039l-2.825.7a.164.164,0,0,0-.079.276Z" transform="translate(-124.045 -174.641)" fill="#464a5f"/><path d="M211.028,431.41l1.4,1.485a.171.171,0,0,0,.158.046l3-.7a.164.164,0,0,0,.072-.282l-1.57-1.485a.171.171,0,0,0-.158-.039l-2.825.7a.171.171,0,0,0-.079.276Z" transform="translate(-122.079 -176.359)" fill="#464a5f"/><path d="M204.967,432.792l1.314,1.413a.19.19,0,0,0,.2.059l2.9-.657a.2.2,0,0,0,.1-.348l-1.5-1.419a.191.191,0,0,0-.191-.053l-2.74.657a.21.21,0,0,0-.079.348Z" transform="translate(-119.994 -176.821)" fill="#464a5f"/><path d="M209.577,439.595l1.314,1.419a.2.2,0,0,0,.2.059l2.9-.657a.21.21,0,0,0,.1-.355l-1.5-1.419a.2.2,0,0,0-.191-.046l-2.74.657a.2.2,0,0,0-.079.342Z" transform="translate(-121.575 -179.157)" fill="#464a5f"/><path d="M203.3,441.008l1.314,1.419a.2.2,0,0,0,.2.059l2.9-.657a.21.21,0,0,0,.1-.355l-1.452-1.432a.2.2,0,0,0-.19-.046l-2.74.657a.2.2,0,0,0-.131.355Z" transform="translate(-119.422 -179.637)" fill="#464a5f"/><path d="M196.97,442.6l1.314,1.419a.217.217,0,0,0,.2.059l2.911-.657a.2.2,0,0,0,.092-.348l-1.5-1.419a.2.2,0,0,0-.191-.053l-2.74.657a.21.21,0,0,0-.079.342Z" transform="translate(-117.253 -180.187)" fill="#464a5f"/><path d="M190.2,443.923l1.354,1.439a.191.191,0,0,0,.184.053l2.937-.657a.191.191,0,0,0,.085-.329l-1.524-1.459a.2.2,0,0,0-.177-.052l-2.766.657a.191.191,0,0,0-.092.348Z" transform="translate(-114.92 -180.64)" fill="#464a5f"/><path d="M203.24,437.075l1.314,1.419a.19.19,0,0,0,.191.059l2.911-.657a.21.21,0,0,0,.092-.355l-1.5-1.419a.2.2,0,0,0-.191-.046l-2.74.657a.21.21,0,0,0-.079.342Z" transform="translate(-119.403 -178.293)" fill="#464a5f"/><path d="M197.13,438.477l1.314,1.419a.217.217,0,0,0,.2.059l2.9-.657a.2.2,0,0,0,.1-.348l-1.5-1.419a.223.223,0,0,0-.191-.053l-2.74.657a.21.21,0,0,0-.079.342Z" transform="translate(-117.307 -178.775)" fill="#464a5f"/><path d="M190.577,439.886l1.314,1.419a.2.2,0,0,0,.191.059l2.911-.657a.2.2,0,0,0,.092-.348l-1.5-1.419a.21.21,0,0,0-.191-.053l-2.74.657a.2.2,0,0,0-.079.342Z" transform="translate(-115.058 -179.258)" fill="#464a5f"/><path d="M183.871,441.484l1.353,1.439a.177.177,0,0,0,.184.053l2.937-.657a.191.191,0,0,0,.092-.329l-1.524-1.439a.21.21,0,0,0-.184-.053l-2.766.657a.2.2,0,0,0-.092.329Z" transform="translate(-112.761 -179.81)" fill="#464a5f"/><path d="M209.547,435.6l1.314,1.419a.21.21,0,0,0,.2.059l2.9-.657a.2.2,0,0,0,.1-.348l-1.5-1.419a.223.223,0,0,0-.191-.053l-2.74.657a.2.2,0,0,0-.079.342Z" transform="translate(-121.564 -177.787)" fill="#464a5f"/><path d="M198.861,434.365l1.314,1.419a.2.2,0,0,0,.2.059l2.911-.657a.21.21,0,0,0,.092-.355l-1.5-1.419a.2.2,0,0,0-.191-.046l-2.733.657a.21.21,0,0,0-.085.342Z" transform="translate(-117.902 -177.363)" fill="#464a5f"/><path d="M222.433,424.986l1.459,1.557a.118.118,0,0,0,.118.033l3.108-.716a.125.125,0,0,0,.053-.21l-1.649-1.557a.138.138,0,0,0-.112-.033l-2.917.723a.125.125,0,0,0-.059.2Z" transform="translate(-125.995 -174.173)" fill="#464a5f"/><path d="M228.13,423.725l1.465,1.557a.125.125,0,0,0,.118.033l3.1-.716a.125.125,0,0,0,.059-.21l-1.649-1.557a.118.118,0,0,0-.112-.033l-2.924.723a.118.118,0,0,0-.059.2Z" transform="translate(-127.946 -173.74)" fill="#464a5f"/><path d="M233.989,422.445l1.314,1.445a.118.118,0,0,0,.118.033l2.9-.788a.125.125,0,0,0,.046-.21l-1.5-1.262a.118.118,0,0,0-.105,0l-2.733.6a.125.125,0,0,0-.039.177Z" transform="translate(-129.961 -173.348)" fill="#464a5f"/><path d="M240.15,424.5l1.314,1.445a.125.125,0,0,0,.125.033l2.891-.788a.118.118,0,0,0,.046-.21l-1.491-1.262a.125.125,0,0,0-.105,0l-2.733.6a.125.125,0,0,0-.046.177Z" transform="translate(-132.075 -174.051)" fill="#464a5f"/><path d="M239.41,428.463l1.268,1.373a.164.164,0,0,0,.164.046l2.786-.762a.164.164,0,0,0,.066-.283l-1.419-1.2a.151.151,0,0,0-.138,0l-2.628.578a.171.171,0,0,0-.1.243Z" transform="translate(-131.821 -175.396)" fill="#464a5f"/><path d="M234.386,433.552l1.268,1.373a.151.151,0,0,0,.164.046l2.786-.756a.171.171,0,0,0,.066-.289l-1.419-1.2a.151.151,0,0,0-.138-.033l-2.628.585a.158.158,0,0,0-.1.269Z" transform="translate(-130.089 -177.135)" fill="#464a5f"/><path d="M228.37,435.1l1.268,1.373a.184.184,0,0,0,.164.046l2.786-.762a.171.171,0,0,0,.066-.289l-1.419-1.189a.151.151,0,0,0-.138-.033l-2.628.578a.171.171,0,0,0-.1.276Z" transform="translate(-128.028 -177.666)" fill="#464a5f"/><path d="M240.059,432.042l1.268,1.373a.151.151,0,0,0,.164.046l2.786-.762a.164.164,0,0,0,.066-.283l-1.413-1.2a.164.164,0,0,0-.145-.033l-2.628.585a.164.164,0,0,0-.1.269Z" transform="translate(-132.037 -176.617)" fill="#464a5f"/><path d="M239.068,436.392l1.912,1.715a.151.151,0,0,0,.158.033l2.766-.782a.164.164,0,0,0,.066-.283l-2.063-1.807a.164.164,0,0,0-.164-.033l-2.628.874a.164.164,0,0,0-.046.283Z" transform="translate(-131.69 -178.004)" fill="#464a5f"/><path d="M228.9,427.328l1.314,1.445a.131.131,0,0,0,.125.039l2.891-.788a.125.125,0,0,0,.046-.217l-1.491-1.255a.112.112,0,0,0-.105,0l-2.733.6a.118.118,0,0,0-.046.171Z" transform="translate(-128.217 -175.025)" fill="#464a5f"/><path d="M223.21,428.713l1.268,1.373a.164.164,0,0,0,.164.046l2.786-.762a.164.164,0,0,0,.066-.283l-1.413-1.2a.164.164,0,0,0-.145,0l-2.628.578a.171.171,0,0,0-.1.243Z" transform="translate(-126.265 -175.482)" fill="#464a5f"/><path d="M222.027,432.738l1.268,1.367a.158.158,0,0,0,.164.046l2.792-.756a.171.171,0,0,0,.059-.289l-1.413-1.189a.151.151,0,0,0-.145-.039l-2.628.585a.164.164,0,0,0-.1.276Z" transform="translate(-125.851 -176.853)" fill="#464a5f"/><path d="M216.04,434.188l1.268,1.367a.171.171,0,0,0,.171.046l2.786-.756a.171.171,0,0,0,.059-.289l-1.413-1.2a.164.164,0,0,0-.145-.033l-2.628.585a.171.171,0,0,0-.1.276Z" transform="translate(-123.799 -177.351)" fill="#464a5f"/><path d="M217.116,430.06l1.268,1.367a.171.171,0,0,0,.164.053l2.786-.762a.171.171,0,0,0,.066-.289l-1.419-1.189a.178.178,0,0,0-.138-.039l-2.628.585a.164.164,0,0,0-.1.276Z" transform="translate(-124.167 -175.936)" fill="#464a5f"/><path d="M222.138,436.463l1.268,1.373a.151.151,0,0,0,.164.046l2.786-.756a.171.171,0,0,0,.066-.289l-1.419-1.2a.151.151,0,0,0-.138,0l-2.628.585a.158.158,0,0,0-.1.237Z" transform="translate(-125.896 -178.14)" fill="#464a5f"/><path d="M216.24,438.031l1.209,1.314a.2.2,0,0,0,.2.059l2.687-.736a.2.2,0,0,0,.079-.355l-1.314-1.13a.19.19,0,0,0-.177-.046l-2.549.565a.21.21,0,0,0-.138.328Z" transform="translate(-123.868 -178.657)" fill="#464a5f"/><path d="M234.7,425.885l1.314,1.439a.131.131,0,0,0,.125.039l2.891-.788a.125.125,0,0,0,.046-.217l-1.491-1.255a.112.112,0,0,0-.105,0l-2.74.6a.118.118,0,0,0-.039.177Z" transform="translate(-130.203 -174.527)" fill="#464a5f"/><path d="M233.879,429.8l1.268,1.373a.158.158,0,0,0,.164.046l2.792-.756a.171.171,0,0,0,.059-.289l-1.413-1.2a.164.164,0,0,0-.145-.033l-2.628.585a.164.164,0,0,0-.1.269Z" transform="translate(-129.918 -175.849)" fill="#464a5f"/><path d="M228.116,431.382l1.262,1.373a.184.184,0,0,0,.171.046l2.786-.762a.164.164,0,0,0,.066-.283l-1.419-1.2a.164.164,0,0,0-.145-.033l-2.628.578a.164.164,0,0,0-.092.276Z" transform="translate(-127.939 -176.39)" fill="#464a5f"/><path d="M204.914,429.041l1.393,1.485a.164.164,0,0,0,.158.053l3-.7a.164.164,0,0,0,.079-.283l-1.577-1.485a.164.164,0,0,0-.151-.046l-2.825.7a.158.158,0,0,0-.079.269Z" transform="translate(-119.98 -175.547)" fill="#464a5f"/><path d="M198.8,430.525l1.314,1.413a.2.2,0,0,0,.2.066l2.9-.657a.2.2,0,0,0,.1-.348l-1.5-1.419a.191.191,0,0,0-.191-.053l-2.74.657a.21.21,0,0,0-.079.342Z" transform="translate(-117.88 -176.046)" fill="#464a5f"/><path d="M192.283,435.582l.992,1.6a.2.2,0,0,0,.217.092l3.364-.749a.21.21,0,0,0,.125-.322l-1.11-1.544a.2.2,0,0,0-.21-.079l-3.246.7a.2.2,0,0,0-.131.309Z" transform="translate(-115.654 -177.779)" fill="#464a5f"/><path d="M158.711,436.6l3.318-.769a.2.2,0,0,1,.2.072l.585.769a.191.191,0,0,1-.112.3l-3.436.8a.184.184,0,0,1-.21-.092l-.467-.795a.2.2,0,0,1,.125-.289Z" transform="translate(-104.099 -178.209)" fill="#464a5f"/><path d="M165.645,435.1l3.285-.769a.2.2,0,0,1,.2.072l.585.769a.191.191,0,0,1-.112.3l-3.436.8a.19.19,0,0,1-.21-.092l-.466-.8a.191.191,0,0,1,.158-.282Z" transform="translate(-106.467 -177.694)" fill="#464a5f"/><path d="M172.371,433.656l3.318-.769a.191.191,0,0,1,.2.072l.585.762a.2.2,0,0,1-.112.309l-3.436.8a.191.191,0,0,1-.21-.092l-.466-.8a.191.191,0,0,1,.125-.283Z" transform="translate(-108.784 -177.2)" fill="#464a5f"/><path d="M178.9,432.167l3.285-.769a.2.2,0,0,1,.2.072l.578.769a.191.191,0,0,1-.105.3l-3.443.8a.2.2,0,0,1-.21-.092l-.466-.8a.2.2,0,0,1,.164-.282Z" transform="translate(-111.013 -176.689)" fill="#464a5f"/><path d="M185.551,430.7l3.285-.762a.217.217,0,0,1,.21.072l.565.749a.2.2,0,0,1-.118.322l-3.41.8a.2.2,0,0,1-.223-.1l-.453-.775a.2.2,0,0,1,.145-.3Z" transform="translate(-113.297 -176.188)" fill="#464a5f"/><path d="M192,429.349l3.285-.762a.2.2,0,0,1,.21.079l.565.742a.2.2,0,0,1-.118.322l-3.41.8a.21.21,0,0,1-.223-.1l-.453-.775a.21.21,0,0,1,.145-.3Z" transform="translate(-115.511 -175.725)" fill="#464a5f"/><path d="M198.323,428.05l3.042-.742a.217.217,0,0,1,.2.059l.591.657a.21.21,0,0,1-.1.342l-3.009.71a.2.2,0,0,1-.2-.053l-.657-.657a.2.2,0,0,1,.131-.315Z" transform="translate(-117.679 -175.286)" fill="#464a5f"/><path d="M204.477,426.6l3.134-.762a.19.19,0,0,1,.164.046l.657.69a.164.164,0,0,1-.079.276l-3.095.775a.158.158,0,0,1-.158-.046l-.7-.7a.164.164,0,0,1,.072-.276Z" transform="translate(-119.805 -174.783)" fill="#464a5f"/><path d="M210.619,425.18l3.134-.762a.177.177,0,0,1,.158.046l.657.69a.164.164,0,0,1-.079.276l-3.095.775a.158.158,0,0,1-.158-.046l-.657-.7a.164.164,0,0,1,.039-.276Z" transform="translate(-121.92 -174.296)" fill="#464a5f"/><path d="M216.734,423.929l3.134-.762a.158.158,0,0,1,.158.046l.657.69a.164.164,0,0,1-.085.269l-3.068.782a.177.177,0,0,1-.158-.046l-.69-.7a.164.164,0,0,1,.053-.276Z" transform="translate(-124.014 -173.866)" fill="#464a5f"/><path d="M222.542,422.526l3.226-.788a.112.112,0,0,1,.118.033l.723.762a.125.125,0,0,1-.059.2l-3.187.8a.144.144,0,0,1-.118-.033l-.762-.775a.125.125,0,0,1,.059-.2Z" transform="translate(-126.012 -173.375)" fill="#464a5f"/><path d="M228.4,421.269l3.233-.782a.105.105,0,0,1,.112.033l.723.756a.125.125,0,0,1-.059.21l-3.187.795a.111.111,0,0,1-.118-.033l-.762-.769a.125.125,0,0,1,.059-.21Z" transform="translate(-128.019 -172.947)" fill="#464a5f"/><path d="M234.233,419.995l2.99-.657a.118.118,0,0,1,.125.039l.578.71a.125.125,0,0,1-.066.2l-2.806.742a.145.145,0,0,1-.118-.033l-.762-.775a.125.125,0,0,1,.059-.223Z" transform="translate(-130.015 -172.553)" fill="#464a5f"/><path d="M239.809,418.715l2.989-.657a.132.132,0,0,1,.125.039l.572.71a.118.118,0,0,1-.059.2l-2.806.742a.125.125,0,0,1-.125-.033l-.756-.769a.125.125,0,0,1,.059-.23Z" transform="translate(-131.925 -172.115)" fill="#464a5f"/><path d="M162.312,442.123l1.1,1.57a.184.184,0,0,0,.2.079l5.749-1.347a.19.19,0,0,0,.112-.3l-1.222-1.6a.19.19,0,0,0-.2-.072l-5.631,1.38a.191.191,0,0,0-.112.3Z" transform="translate(-105.374 -179.793)" fill="#464a5f"/><path d="M164.984,445.25l1.1,1.754a.2.2,0,0,0,.21.085l6.945-1.656a.191.191,0,0,0,.105-.309l-1.373-1.7a.2.2,0,0,0-.2-.066l-6.669,1.6a.191.191,0,0,0-.118.289Z" transform="translate(-106.292 -180.791)" fill="#464a5f"/><path d="M167.344,448.422l1.314,1.9a.191.191,0,0,0,.2.072l9.2-2.273a.19.19,0,0,0,.105-.3l-1.478-1.905a.19.19,0,0,0-.2-.066L167.4,448.12a.2.2,0,0,0-.053.3Z" transform="translate(-107.095 -181.644)" fill="#464a5f"/><path d="M199.4,443.783l1.682,2.024a.2.2,0,0,0,.2.066l20.243-5.046a.21.21,0,0,0,.092-.348l-2.063-2.05a.2.2,0,0,0-.2-.053L199.5,443.448a.21.21,0,0,0-.105.335Z" transform="translate(-118.088 -179.081)" fill="#464a5f"/><path d="M231.184,437.89l1.971,1.971a.171.171,0,0,0,.164.039l4.146-1.11a.164.164,0,0,0,.072-.276l-2.056-2.011a.158.158,0,0,0-.158-.046l-4.08,1.13a.171.171,0,0,0-.059.3Z" transform="translate(-128.983 -178.424)" fill="#464a5f"/><path d="M246.443,436.152l.907.953a.112.112,0,0,0,.118.033l3.068-.821a.125.125,0,0,0,.053-.21l-1.091-1.025a.118.118,0,0,0-.118-.033l-2.884.9a.125.125,0,0,0-.053.2Z" transform="translate(-134.229 -177.941)" fill="#464a5f"/><path d="M250.429,433.1l1.078,1.13a.118.118,0,0,0,.131,0l2.819-.972a.125.125,0,0,0,.046-.21l-1.078-.92a.1.1,0,0,0-.112,0l-2.845.8a.125.125,0,0,0-.039.177Z" transform="translate(-135.6 -176.936)" fill="#464a5f"/><path d="M253.172,435.635l-.775-.624a.125.125,0,0,1,0-.217l2.812-.972a.125.125,0,0,1,.125,0l.88.854a.125.125,0,0,1-.059.2l-2.911.756a.118.118,0,0,1-.072,0Z" transform="translate(-136.261 -177.516)" fill="#464a5f"/><path d="M257.991,433.443c.243.237.657.7.828.854a.125.125,0,0,0,.125.033l2.924-.788a.125.125,0,0,0,.053-.21l-1.038-.94a.138.138,0,0,0-.125,0l-2.714.874a.125.125,0,0,0-.053.177Z" transform="translate(-138.194 -177.027)" fill="#464a5f"/><path d="M245.477,429.992l1.564,1.511a.132.132,0,0,0,.118,0l7.543-1.971a.125.125,0,0,0,.053-.217l-1.833-1.511a.138.138,0,0,0-.112,0l-7.28,1.971a.125.125,0,0,0-.053.217Z" transform="translate(-133.894 -175.454)" fill="#464a5f"/><path d="M244.709,426.725l1.616,1.439a.112.112,0,0,0,.112,0l5.677-1.314a.118.118,0,0,0,.046-.21l-1.859-1.557a.105.105,0,0,0-.105,0l-5.434,1.459a.125.125,0,0,0-.053.184Z" transform="translate(-133.638 -174.52)" fill="#464a5f"/><path d="M245.486,423.259l1.531,1.373a.138.138,0,0,0,.112,0l2.911-.657a.118.118,0,0,0,.053-.21l-1.813-1.564a.1.1,0,0,0-.112,0l-2.628.848a.118.118,0,0,0-.053.21Z" transform="translate(-133.896 -173.53)" fill="#464a5f"/><path d="M239.412,420.992l1.478,1.347a.118.118,0,0,0,.112,0l4.6-1.091a.125.125,0,0,0,.046-.217l-1.761-1.478a.118.118,0,0,0-.112,0l-4.343,1.222a.125.125,0,0,0-.02.217Z" transform="translate(-131.81 -172.623)" fill="#464a5f"/></g></svg>