<svg xmlns="http://www.w3.org/2000/svg" width="76.481" height="76.548" viewBox="0 0 76.481 76.548"><g transform="translate(-64.32 -25.596)"><rect width="2.64" height="10.558" transform="translate(122.324 88.947)" fill="#f0efff"/><rect width="2.64" height="10.558" transform="translate(138.162 88.947)" fill="#f0efff"/><rect width="5.279" height="2.64" transform="translate(128.923 83.667)" fill="#f0efff"/><rect width="7.919" height="10.558" transform="translate(127.604 88.947)" fill="#f0efff"/><path d="M91.994,84.521l-2.838-2.838L87.3,83.549l2.851,2.845c.3-.326.57-.66.886-.981S91.674,84.817,91.994,84.521Z" transform="translate(-18.238 -44.521)" fill="#f0efff"/><path d="M110.144,106.367l2.9,2.9,1.866-1.866L112,104.493c-.327.3-.66.583-.973.894S110.44,106.041,110.144,106.367Z" transform="translate(-36.374 -62.627)" fill="#f0efff"/><path d="M72.789,144.609a28.794,28.794,0,0,0,18.358,8.386v3.888H81.909a6.611,6.611,0,0,0-6.467,5.279H72.67v2.64h39.593v-2.64h-2.771a6.611,6.611,0,0,0-6.467-5.279H93.787v-3.8a28.79,28.79,0,0,0,19.086-7.582l3.777,3.777,1.866-1.866-3.775-3.775a28.874,28.874,0,0,0,2.55-3.167l-2.179-1.489a26.388,26.388,0,0,1-2.237,2.789l-2.639-2.64L108.374,141l2.632,2.632A26.361,26.361,0,0,1,73.77,106.4l-1.861-1.866A29.047,29.047,0,0,0,72.789,144.609Z" transform="translate(0 -62.657)" fill="#f0efff"/><path d="M114.4,86.53l-1.527-2.153a29.107,29.107,0,0,0-2.794,2.282l1.866,1.866A26.546,26.546,0,0,1,114.4,86.53Z" transform="translate(-36.323 -46.659)" fill="#f0efff"/><path d="M300.555,161.318l-.536,1.159,1.32,1.32A20.744,20.744,0,0,0,300.555,161.318Z" transform="translate(-187.094 -107.734)" fill="#f0efff"/><path d="M272.6,189.024l1.421-1.421a1.32,1.32,0,0,1,.933-.387h4.906a21.314,21.314,0,0,0,.377-3.959c0-.447-.016-.891-.043-1.329a1.312,1.312,0,0,1-.89-.377l-2.228-2.228Z" transform="translate(-165.326 -122.025)" fill="#f0efff"/><path d="M122.643,105.227H128.2a1.329,1.329,0,0,1,.732.222l3.322,2.215,1.955-.978a1.32,1.32,0,0,1,.59-.139h5.279a1.328,1.328,0,0,1,.732.222l3.959,2.64a1.327,1.327,0,0,1,.447.508l1.32,2.64a1.307,1.307,0,0,1,.14.59v3.648l.6,1.2,4.855-18.213a21.121,21.121,0,0,0-29.493,5.448Zm10.343-3.959H135.3l1.774-2.159a1.32,1.32,0,0,1,1.023-.48h1.485v2.64h1.824l.954-1.91,2.362,1.18-1.32,2.64a1.32,1.32,0,0,1-1.181.73h-9.238Z" transform="translate(-46.296 -55.874)" fill="#f0efff"/><path d="M142.768,227.255l-.875-2.624-.734,1.584a1.32,1.32,0,0,1-2.131.38l-2.8-2.793a1.319,1.319,0,0,1-.342-1.274l.264-.978c-.016,0-.03.008-.046.008h-1.937l-1.924,2.886,1.179,4.712a1.32,1.32,0,0,1-1.28,1.64h-3.959a1.32,1.32,0,0,1-1.251-.9l-2.574-7.716-3.434-4.58h-1.766l-1.655.552a1.32,1.32,0,0,1-1.751.647l-.066-.033-2.407,2.407a1.32,1.32,0,0,1-1.825.04l-.477-.436a21.134,21.134,0,0,0,19.85,13.98,20.911,20.911,0,0,0,13.941-5.306l-1.68-1.68A1.322,1.322,0,0,1,142.768,227.255Z" transform="translate(-37.035 -152.41)" fill="#f0efff"/><path d="M254.863,60.661l-5.88.841a1.312,1.312,0,0,1-1.119-.373L232.932,46.2a1.32,1.32,0,0,1,.4-2.142L254.9,34.571l-.913-.912-26.344,6.353a1.319,1.319,0,0,1-1.242-.35l-11.1-11.1-4.619-2.938c-.05-.032-.092-.061-.169.019s-.05.119-.018.169l2.939,4.619,11.1,11.1a1.32,1.32,0,0,1,.342,1.274l-7.261,27.259.924.924,10.405-22.544a1.32,1.32,0,0,1,2.131-.381L246,62.994a1.32,1.32,0,0,1,.373,1.121l-.841,5.878.823.823,2.125-6.373a1.32,1.32,0,0,1,.833-.834l6.373-2.125Z" transform="translate(-116.008)" fill="#f0efff"/><path d="M273.1,236.286l1.469,1.469a20.942,20.942,0,0,0,3.976-6.633V230.4h-3.413l-3,3Z" transform="translate(-164.96 -162.57)" fill="#f0efff"/><path d="M128.878,157.144l-3.334-2.224h-4.568l-2.361,1.181a1.321,1.321,0,0,1-1.32-.083l-3.629-2.418h-6.7a20.756,20.756,0,0,0-2.138,9.238,21.041,21.041,0,0,0,.169,2.547l2.427,2.225,1.746-1.746a1.32,1.32,0,0,1,.516-.319l.937-.313a1.37,1.37,0,0,1,.2-.049,1.39,1.39,0,0,1,.187-.078l2.64-.88a1.316,1.316,0,0,1,.417-.067h2.64a1.32,1.32,0,0,1,1.056.528l3.959,5.279a1.306,1.306,0,0,1,.2.375l2.343,7.016h1.32l-.909-3.639a1.32,1.32,0,0,1,.182-1.056l2.639-3.959a1.32,1.32,0,0,1,1.093-.585h1.688l.846-2.538-1.076-2.151a1.32,1.32,0,0,1-.139-.59v-3.648Z" transform="translate(-32.157 -101.607)" fill="#f0efff"/></g></svg>