<svg xmlns="http://www.w3.org/2000/svg" width="73" height="72.928" viewBox="0 0 73 72.928"><g transform="translate(-51.118 -0.196)"><path d="M92.254,18.407a9.123,9.123,0,0,0,8.821-6.842h23.11V7h-23.11A9.123,9.123,0,0,0,83.428,7H51.2v4.562H83.433A9.123,9.123,0,0,0,92.254,18.407Z" transform="translate(-0.068 0)" fill="#f0efff"/><path d="M233.133,140.127a9.475,9.475,0,0,0-5.5-4.744c-3-1.146-4.7.6-4.134,2.218s2.908,3.524,4.271,5.976,1.9,5.286,3.3,7.6,3.307,5.183,4.339,7.413,5.291,4.368,5.291,4.368l1.311,2.657H259.75l-1.825-2.851a61.33,61.33,0,0,0,1.825-9.956c.211-3.98-1.317-11.564-1.534-14.512s-.924-3.051-2.435-3.763a4.437,4.437,0,0,0-2.851-.331,13.724,13.724,0,0,0-1.545-1.8c-1.711-1.711-4.522.462-4.522.462a2.9,2.9,0,0,0-1.768-2.429c-1.237-.4-4.436-.262-4.2,2.532,0,0-.342-17.032-1.408-19.142s-3.324-.57-3.746-.086-.24,18.948-.114,20.624-.313,8.553-.313,8.553A6.845,6.845,0,0,1,233.133,140.127Z" transform="translate(-141.573 -92.492)" fill="#f0efff"/><path d="M69.076,160.432a9.123,9.123,0,1,0,0,4.562H91.7c0-1.306-.04-2.9-.051-4.562Z" transform="translate(0 -126.06)" fill="#f0efff"/><path d="M356.186,192H333.5q0,.6.04,1.192a6.8,6.8,0,0,1,2.754.222,4.522,4.522,0,0,1,2.161,1.494,4.762,4.762,0,0,1,5.023,1.021c.222.217.416.428.6.627h12.1Z" transform="translate(-232.069 -157.627)" fill="#f0efff"/><path d="M51.2,318.765H65.187a9.123,9.123,0,0,0,17.648,0h8.627c-.724-1.408-1.751-3.062-2.68-4.562H82.829a9.123,9.123,0,0,0-17.648,0H51.2Z" transform="translate(-0.068 -252.461)" fill="#f0efff"/><path d="M440.1,345.6h-3.758c-.154,1.494-.433,3.108-.73,4.562H440.1Z" transform="translate(-315.986 -283.858)" fill="#f0efff"/></g></svg>