<svg xmlns="http://www.w3.org/2000/svg" width="74.5" height="67.05" viewBox="0 0 74.5 67.05"><g transform="translate(-64 -32.024)"><path d="M231.156,64.653,220.366,54.259V38.228a1.242,1.242,0,0,0-1.242-1.242H209.19a1.242,1.242,0,0,0-1.242,1.242V42.3l-10.319-9.934a1.242,1.242,0,0,0-1.714,0L179.885,47.8a1.242,1.242,0,0,0,1.581,1.916,1.267,1.267,0,0,0,.133-.127l15.174-14.6,11.536,11.176h0l21.11,20.34a1.27,1.27,0,0,0,1.738-1.85Z" transform="translate(-93.036)" fill="#f0efff"/><path d="M185.312,211.2a1.242,1.242,0,0,0-1.242,1.242V241H136.883V232.31a1.242,1.242,0,0,0-2.484,0v9.934a1.242,1.242,0,0,0,1.242,1.242h49.67a1.242,1.242,0,0,0,1.242-1.242v-29.8A1.242,1.242,0,0,0,185.312,211.2Z" transform="translate(-56.741 -144.412)" fill="#f0efff"/><path d="M240.143,256.668a1.242,1.242,0,0,0,1.242-1.242V238.042a1.242,1.242,0,0,0-1.242-1.242h-14.9A1.242,1.242,0,0,0,224,238.042v17.384a1.242,1.242,0,1,0,2.483,0V239.284H238.9v16.143A1.242,1.242,0,0,0,240.143,256.668Z" transform="translate(-128.956 -165.045)" fill="#f0efff"/><path d="M100.584,276.442a1.242,1.242,0,0,0-1.242-1.242h-14.9a1.242,1.242,0,1,0,0,2.484h14.9A1.242,1.242,0,0,0,100.584,276.442Z" transform="translate(-15.475 -195.994)" fill="#f0efff"/><path d="M96,231.642a1.242,1.242,0,0,0,1.242,1.242H117.11a1.242,1.242,0,1,0,0-2.483H97.242A1.242,1.242,0,0,0,96,231.642Z" transform="translate(-25.791 -159.886)" fill="#f0efff"/><path d="M88.835,186.842a1.242,1.242,0,0,0-1.242-1.242H65.242a1.242,1.242,0,0,0,0,2.484H87.593A1.242,1.242,0,0,0,88.835,186.842Z" transform="translate(0 -123.779)" fill="#f0efff"/><path d="M97.242,143.284h9.934a1.242,1.242,0,0,0,0-2.484H97.242a1.242,1.242,0,0,0,0,2.484Z" transform="translate(-25.791 -87.671)" fill="#f0efff"/></g></svg>