<svg xmlns="http://www.w3.org/2000/svg" width="61.783" height="61.783" viewBox="0 0 61.783 61.783"><g transform="translate(-70.4 -19.2)"><path d="M98.1,236.783v2.13H78.922v-2.13h-2.13v2.13h-2.13v-6.391h27.7v6.391h-2.13v-2.13ZM78.922,227.2a3.2,3.2,0,0,1,3.2-3.2H94.9a3.2,3.2,0,0,1,3.2,3.2v3.2h-2.13v-3.2A1.066,1.066,0,0,0,94.9,226.13H82.117a1.066,1.066,0,0,0-1.065,1.065v3.2h-2.13Zm27.7,23.435a1.067,1.067,0,0,1-1.065,1.065H71.465A1.067,1.067,0,0,1,70.4,250.63V233.587a1.067,1.067,0,0,1,1.065-1.065H72.53v7.457a1.066,1.066,0,0,0,1.065,1.065h3.2v2.13h2.13v-2.13H98.1v2.13h2.13v-2.13h3.2a1.066,1.066,0,0,0,1.065-1.065v-7.457h1.065a1.067,1.067,0,0,1,1.065,1.065Z" transform="translate(0 -170.713)" fill="#f0efff"/><path d="M332.783,311.081v-3.82a1.066,1.066,0,0,0-1.065-1.065H320v-4.261h11.717a1.066,1.066,0,0,0,1.065-1.065v-3.82l7.015,7.015Z" transform="translate(-208.057 -231.605)" fill="#f0efff"/><path d="M251.7,31.983v2.13H232.522v-2.13h-2.13v2.13h-2.13V27.722h27.7v6.391h-2.13v-2.13ZM232.522,22.4a3.2,3.2,0,0,1,3.2-3.2H248.5a3.2,3.2,0,0,1,3.2,3.2v3.2h-2.13V22.4A1.066,1.066,0,0,0,248.5,21.33H235.717a1.066,1.066,0,0,0-1.065,1.065v3.2h-2.13Zm27.7,23.435a1.067,1.067,0,0,1-1.065,1.065H225.065A1.067,1.067,0,0,1,224,45.83V28.787a1.067,1.067,0,0,1,1.065-1.065h1.065v7.457a1.066,1.066,0,0,0,1.065,1.065h3.2v2.13h2.13v-2.13H251.7v2.13h2.13v-2.13h3.2a1.066,1.066,0,0,0,1.065-1.065V27.722h1.065a1.067,1.067,0,0,1,1.065,1.065Z" transform="translate(-128.035)" fill="#f0efff"/><path d="M80.065,92.25v3.82a1.066,1.066,0,0,0,1.065,1.065H92.848V101.4H81.131a1.066,1.066,0,0,0-1.065,1.065v3.82L73.05,99.265Z" transform="translate(-2.209 -60.892)" fill="#f0efff"/></g></svg>