<svg xmlns="http://www.w3.org/2000/svg" width="73" height="64.752" viewBox="0 0 73 64.752"><g transform="translate(-51.2 -24)"><path d="M279.537,213.868c.057,0,.114.057.171.057a.686.686,0,0,0,.57-.4l1.425-3.99a.577.577,0,0,0-1.083-.4l-1.425,3.99A.571.571,0,0,0,279.537,213.868Z" transform="translate(-187.354 -151.849)" fill="#f0efff"/><path d="M254.725,188.918l-3.762,1.767a.633.633,0,0,0-.285.8.548.548,0,0,0,.513.342.343.343,0,0,0,.228-.057L255.181,190a.633.633,0,0,0,.285-.8A.566.566,0,0,0,254.725,188.918Z" transform="translate(-163.91 -135.506)" fill="#f0efff"/><path d="M257.651,157.841a.593.593,0,0,0-.342-.741l-3.933-1.425a.577.577,0,1,0-.4,1.083l3.933,1.425c.057,0,.114.057.228.057A.609.609,0,0,0,257.651,157.841Z" transform="translate(-165.525 -108.191)" fill="#f0efff"/><path d="M286.874,131.477a.343.343,0,0,0,.228-.057.633.633,0,0,0,.285-.8L285.62,126.8a.633.633,0,0,0-.8-.285.679.679,0,0,0-.228.8l1.767,3.819A.654.654,0,0,0,286.874,131.477Z" transform="translate(-191.784 -84.221)" fill="#f0efff"/><path d="M320.348,133.605a.686.686,0,0,0,.57-.4l1.425-3.99a.577.577,0,1,0-1.083-.4l-1.425,3.99a.593.593,0,0,0,.342.741C320.177,133.605,320.234,133.605,320.348,133.605Z" transform="translate(-220.755 -85.836)" fill="#f0efff"/><path d="M335.408,163.985a.342.342,0,0,0,.228-.057l3.762-1.767a.6.6,0,0,0-.513-1.083l-3.762,1.767a.633.633,0,0,0-.285.8A1.022,1.022,0,0,0,335.408,163.985Z" transform="translate(-233.08 -112.625)" fill="#f0efff"/><path d="M118.175,35.172H68.756c-1.71-8.037-6.384-8.55-6.783-8.607H58.382A3.96,3.96,0,0,0,54.9,24a3.7,3.7,0,0,0-3.7,3.7,3.747,3.747,0,0,0,3.7,3.762,4.017,4.017,0,0,0,3.477-2.622h3.363c.114,0,3.249.969,4.446,7.524C67.73,45.09,71.72,66.978,71.72,66.978a6.658,6.658,0,0,0,6.954,6.9h21.09l-.855-2.223H78.617A4.02,4.02,0,0,1,74.8,68.745c3.7-.228,13.851-.912,22.8-1.539l-.8-2.793c-9.12.627-19.209,1.311-22.458,1.539-.741-3.7-3.534-19.437-5.073-27.987h48.507a3.5,3.5,0,0,1,3.534,4.047L119.258,58.77a2.6,2.6,0,0,1-.285.855l2.508,1.254a5.749,5.749,0,0,0,.57-1.767L124.16,41.9A5.894,5.894,0,0,0,118.175,35.172Z" fill="#f0efff"/><path d="M317.419,191.219l4.788-1.881a1.1,1.1,0,0,0,.741-1.026,1.314,1.314,0,0,0-.627-1.14l-20.178-10.2a1.183,1.183,0,0,0-1.653,1.425l6.84,22.059a1.23,1.23,0,0,0,1.026.855,1.2,1.2,0,0,0,1.14-.627l2.736-5.244,5.871,7.809a1.248,1.248,0,0,0,.8.456h.171a1.255,1.255,0,0,0,.741-.228l3.591-2.793a1.248,1.248,0,0,0,.456-.8,1.3,1.3,0,0,0-.228-.912Zm1.824,9.633-6.27-8.322a1.189,1.189,0,0,0-.912-.456h-.114a1.4,1.4,0,0,0-.969.627l-2.28,4.389-5.187-16.7,15.333,7.752-3.762,1.482a1.078,1.078,0,0,0-.684.8,1.128,1.128,0,0,0,.228,1.026l6.384,8.094Z" transform="translate(-204.831 -125.609)" fill="#f0efff"/><path d="M346.022,331.84a4.959,4.959,0,1,0,4.9,4.959A4.951,4.951,0,0,0,346.022,331.84Zm0,7.524a2.565,2.565,0,1,1,2.565-2.565A2.591,2.591,0,0,1,346.022,339.364Z" transform="translate(-238.278 -253.006)" fill="#f0efff"/><path d="M187.622,331.84a4.959,4.959,0,1,0,4.9,4.959A4.951,4.951,0,0,0,187.622,331.84Zm0,7.524a2.565,2.565,0,1,1,2.565-2.565A2.591,2.591,0,0,1,187.622,339.364Z" transform="translate(-108.093 -253.006)" fill="#f0efff"/></g></svg>