<svg xmlns="http://www.w3.org/2000/svg" width="70.929" height="72.999" viewBox="0 0 70.929 72.999"><g transform="translate(-96.818 -40.972)"><path d="M207.294,257.3a17.5,17.5,0,0,0,16.13,0c-1.088-4.328-4.3-7.388-8.059-7.388S208.383,252.974,207.294,257.3Z" transform="translate(-85.862 -162.391)" fill="#f0efff"/><path d="M233.652,197.852a3.954,3.954,0,1,0-3.954,3.955A3.969,3.969,0,0,0,233.652,197.852Z" transform="translate(-100.201 -118.843)" fill="#f0efff"/><path d="M160.775,54.917a6.979,6.979,0,1,0-5.88-3.237L140.858,65.716a17.62,17.62,0,0,0-22.723,0l-8.457-8.471,0,0a6.991,6.991,0,1,0-2.16,2.16l0,0,8.472,8.456a17.575,17.575,0,0,0,.015,22.708l-8.475,8.474a6.977,6.977,0,1,0,2.15,2.154l.012-.012,8.456-8.471c.2.167.4.335.608.487a12.436,12.436,0,0,1,7.316-8.107,7,7,0,1,1,6.844,0,12.4,12.4,0,0,1,7.316,8.107c.213-.152.411-.32.608-.487l10.549,10.549a6.976,6.976,0,1,0,2.145-2.144L142.987,90.569A17.575,17.575,0,0,0,143,67.861l14.037-14.037A6.97,6.97,0,0,0,160.775,54.917ZM101.009,56.3a3.934,3.934,0,1,1,5.564,0A3.939,3.939,0,0,1,101.009,56.3Zm5.57,51.406a3.932,3.932,0,1,1,0-5.564A3.942,3.942,0,0,1,106.578,107.705Zm53.475-3.489a3.94,3.94,0,1,1-2.782-1.15A3.938,3.938,0,0,1,160.053,104.216Zm-2.06-59.053a3.934,3.934,0,1,1,0,5.564A3.921,3.921,0,0,1,157.993,45.163Z" fill="#f0efff"/></g></svg>