<svg xmlns="http://www.w3.org/2000/svg" width="72.642" height="72.644" viewBox="0 0 72.642 72.644"><g transform="translate(-85.356 -34.152)"><path d="M251.14,44.159a1.313,1.313,0,0,0,1.314-1.312V35.464a1.314,1.314,0,0,0-2.628,0v7.383A1.312,1.312,0,0,0,251.14,44.159Z" transform="translate(-129.463)" fill="#f0efff"/><path d="M251.14,328.426a1.314,1.314,0,0,0-1.314,1.312v7.383a1.314,1.314,0,1,0,2.628,0v-7.383A1.313,1.313,0,0,0,251.14,328.426Z" transform="translate(-129.463 -231.639)" fill="#f0efff"/><path d="M95.363,199.942a1.312,1.312,0,0,0-1.312-1.312H86.668a1.313,1.313,0,0,0,0,2.627h7.383A1.312,1.312,0,0,0,95.363,199.942Z" transform="translate(0 -129.47)" fill="#f0efff"/><path d="M388.321,198.63h-7.383a1.313,1.313,0,0,0,0,2.627h7.383a1.313,1.313,0,0,0,0-2.627Z" transform="translate(-231.636 -129.47)" fill="#f0efff"/><path d="M139.126,89.791a1.313,1.313,0,0,0,1.857-1.856l-5.22-5.221a1.313,1.313,0,0,0-1.856,1.856Z" transform="translate(-37.913 -37.922)" fill="#f0efff"/><path d="M343.857,290.79A1.313,1.313,0,1,0,342,292.647l5.22,5.221a1.313,1.313,0,1,0,1.856-1.859Z" transform="translate(-201.716 -201.711)" fill="#f0efff"/><path d="M139.126,290.794l-5.22,5.22a1.313,1.313,0,0,0,1.856,1.859l5.22-5.221a1.313,1.313,0,0,0-1.857-1.858Z" transform="translate(-37.913 -201.715)" fill="#f0efff"/><path d="M343.856,89.791l5.22-5.221a1.313,1.313,0,0,0-1.856-1.856L342,87.934a1.313,1.313,0,0,0,1.856,1.856Z" transform="translate(-201.715 -37.922)" fill="#f0efff"/><path d="M196.986,72.622a1.312,1.312,0,1,0,2.425-1l-1-2.424a1.313,1.313,0,0,0-2.426,1.006Z" transform="translate(-87.001 -26.945)" fill="#f0efff"/><path d="M301.585,318.293a1.313,1.313,0,1,0-2.427,1l1,2.423a1.313,1.313,0,1,0,2.426-1Z" transform="translate(-168.216 -223.024)" fill="#f0efff"/><path d="M120.406,147.209l2.424,1a1.313,1.313,0,1,0,1.006-2.426l-2.424-1a1.313,1.313,0,0,0-1.006,2.426Z" transform="translate(-26.952 -87.004)" fill="#f0efff"/><path d="M372.921,248.958l-2.424-1a1.312,1.312,0,1,0-1,2.425l2.424,1a1.312,1.312,0,1,0,1-2.425Z" transform="translate(-223.021 -168.216)" fill="#f0efff"/><path d="M124.546,248.669a1.313,1.313,0,0,0-1.717-.709l-2.424,1a1.312,1.312,0,1,0,1.006,2.424l2.424-1A1.312,1.312,0,0,0,124.546,248.669Z" transform="translate(-26.952 -168.219)" fill="#f0efff"/><path d="M368.782,147.5a1.313,1.313,0,0,0,1.715.709l2.424-1a1.312,1.312,0,1,0-1-2.425l-2.424,1A1.312,1.312,0,0,0,368.782,147.5Z" transform="translate(-223.021 -87.004)" fill="#f0efff"/><path d="M198.7,317.578a1.316,1.316,0,0,0-1.717.711l-1,2.424a1.313,1.313,0,0,0,2.426,1l1-2.424A1.312,1.312,0,0,0,198.7,317.578Z" transform="translate(-87.001 -223.021)" fill="#f0efff"/><path d="M299.875,73.342a1.314,1.314,0,0,0,1.715-.713l1-2.422A1.312,1.312,0,0,0,300.17,69.2l-1,2.424A1.314,1.314,0,0,0,299.875,73.342Z" transform="translate(-168.222 -26.952)" fill="#f0efff"/><path d="M156.122,143.71l18.617,18.646,18.617-18.646a13.174,13.174,0,0,0-18.617-18.589,13.174,13.174,0,0,0-18.617,18.589Zm11.96-5.747h3.358V134.6a3.3,3.3,0,0,1,6.6,0v3.359H181.4a3.3,3.3,0,1,1,0,6.6H178.04v3.358a3.3,3.3,0,1,1-6.6,0v-3.358h-3.358a3.3,3.3,0,1,1,0-6.6Z" transform="translate(-53.063 -68.954)" fill="#f0efff"/></g></svg>