<svg xmlns="http://www.w3.org/2000/svg" width="71.026" height="78.889" viewBox="0 0 71.026 78.889"><g transform="translate(61.014 -571.73)"><path d="M-94.681,416.982v3.232a8.566,8.566,0,0,1-8.212,8.562h-54.165a5.338,5.338,0,0,0-3.931,1.747h55.214a.97.97,0,0,1,.961.961.97.97,0,0,1-.961.961h-56.262a6.781,6.781,0,0,0-.175,1.4v.611h56.437a.97.97,0,0,1,.961.961.97.97,0,0,1-.961.961h-56.437v.611a6.779,6.779,0,0,0,.175,1.4h56.262a.97.97,0,0,1,.961.961.97.97,0,0,1-.961.961h-55.214a5.338,5.338,0,0,0,3.931,1.747h53.991a1.752,1.752,0,0,1,1.747,1.747,1.752,1.752,0,0,1-1.747,1.747h-53.991a8.669,8.669,0,0,1-8.649-8.649v-3.232a8.566,8.566,0,0,1,8.212-8.561h54.165A5.337,5.337,0,0,0-99.4,423.36h-55.214a.969.969,0,0,1-.961-.961.969.969,0,0,1,.961-.961H-98.35a6.779,6.779,0,0,0,.175-1.4v-.612h-56.437a.969.969,0,0,1-.961-.961.97.97,0,0,1,.961-.961h56.437v-.611a6.8,6.8,0,0,0-.175-1.4h-56.262a.969.969,0,0,1-.961-.961.97.97,0,0,1,.961-.961H-99.4a5.337,5.337,0,0,0-3.931-1.747h-53.9a1.753,1.753,0,0,1-1.747-1.747,1.753,1.753,0,0,1,1.747-1.747h22.19a7.7,7.7,0,0,1-.874-.524,17.508,17.508,0,0,1-4.63-5.5,20.989,20.989,0,0,1-2.621-7.426,12.787,12.787,0,0,1,1.136-8.212,9.755,9.755,0,0,1,6.29-4.8,14.2,14.2,0,0,1,6.639-.262c.7.175,1.31.612,2.009.786,0-.262.087-.524.087-.786a9.157,9.157,0,0,0-.35-1.485,8.05,8.05,0,0,0-3.582-3.844,24.508,24.508,0,0,0-3.407-1.66h-.175v.087c.087.087.175.087.262.175a35.4,35.4,0,0,1,3.757,2.534,8.49,8.49,0,0,1,1.922,2.621,6.014,6.014,0,0,1-.874.349,4.918,4.918,0,0,1-3.844-.349,9.152,9.152,0,0,1-3.844-3.669,11.058,11.058,0,0,1-1.048-8.474,3.132,3.132,0,0,1,.349-.961c.087-.087.175-.262.262-.262s.262.175.349.262a6.84,6.84,0,0,0,3.407,3.058,18.713,18.713,0,0,0,2.359.524,10.237,10.237,0,0,1,2.8.786,5.637,5.637,0,0,1,2.8,3.058,4.214,4.214,0,0,1-.437,3.407.8.8,0,0,0,0,1.049.085.085,0,0,0,.087.087,13.291,13.291,0,0,1,1.485-2.621,17.2,17.2,0,0,1,2.184-2.184,1.63,1.63,0,0,1,1.66-.349.825.825,0,0,1,.437,1.4,1.573,1.573,0,0,1-.611.437,14.762,14.762,0,0,0-5.5,6.9,17.756,17.756,0,0,0,1.922-.786,14.2,14.2,0,0,1,6.64.262,9.69,9.69,0,0,1,6.29,4.8,12.71,12.71,0,0,1,1.136,8.212,22.166,22.166,0,0,1-2.621,7.426,16.594,16.594,0,0,1-4.63,5.5,7.667,7.667,0,0,1-.874.524h15.463A8.466,8.466,0,0,1-94.681,416.982Z" transform="translate(104.693 205.069)" fill="#f0efff"/></g></svg>