<?xml version="1.0" encoding="utf-8"?>
<!-- Generator: Adobe Illustrator 16.0.0, SVG Export Plug-In . SVG Version: 6.00 Build 0)  -->
<!DOCTYPE svg PUBLIC "-//W3C//DTD SVG 1.1//EN" "http://www.w3.org/Graphics/SVG/1.1/DTD/svg11.dtd">
<svg version="1.1" id="Layer_1" xmlns="http://www.w3.org/2000/svg" xmlns:xlink="http://www.w3.org/1999/xlink" x="0px" y="0px"
	 width="283px" height="119px" viewBox="0 0 283 119" enable-background="new 0 0 283 119" xml:space="preserve">
<g>
	<g>
		<path fill="#1F1F1F" d="M43.219,66.935c0,3.145-0.766,5.837-2.295,8.077c-1.531,2.24-3.792,3.938-6.783,5.092
			c-2.991,1.156-6.631,1.732-10.916,1.732c-4.09,0-7.597-0.625-10.519-1.878c-2.922-1.253-5.079-2.818-6.47-4.696
			c-1.392-1.878-2.087-3.764-2.087-5.655c0-1.253,0.444-2.324,1.336-3.215c0.891-0.891,2.018-1.336,3.38-1.336
			c1.196,0,2.115,0.292,2.755,0.877c0.64,0.585,1.252,1.405,1.837,2.463c1.169,2.032,2.567,3.548,4.195,4.55
			c1.628,1.002,3.847,1.503,6.658,1.503c2.281,0,4.153-0.508,5.614-1.524c1.46-1.015,2.191-2.177,2.191-3.485
			c0-2.003-0.758-3.464-2.275-4.383c-1.517-0.918-4.014-1.795-7.492-2.629c-3.923-0.975-7.117-1.997-9.58-3.068
			c-2.463-1.072-4.432-2.484-5.907-4.237c-1.476-1.753-2.213-3.91-2.213-6.47c0-2.282,0.682-4.438,2.046-6.47
			c1.363-2.032,3.375-3.652,6.032-4.863c2.657-1.21,5.864-1.816,9.622-1.816c2.949,0,5.599,0.307,7.952,0.918
			c2.352,0.612,4.313,1.433,5.885,2.463c1.572,1.029,2.769,2.171,3.59,3.423c0.82,1.252,1.231,2.477,1.231,3.673
			c0,1.308-0.438,2.379-1.315,3.214c-0.876,0.835-2.122,1.252-3.735,1.252c-1.169,0-2.164-0.333-2.985-1.002
			c-0.82-0.667-1.76-1.669-2.817-3.005c-0.863-1.114-1.878-2.004-3.047-2.671c-1.169-0.668-2.756-1.002-4.759-1.002
			c-2.06,0-3.771,0.438-5.135,1.314c-1.363,0.876-2.045,1.969-2.045,3.277c0,1.197,0.5,2.178,1.502,2.943s2.352,1.398,4.049,1.899
			c1.697,0.5,4.035,1.113,7.013,1.837c3.534,0.862,6.421,1.892,8.662,3.089c2.239,1.197,3.938,2.608,5.092,4.237
			C42.642,62.99,43.219,64.848,43.219,66.935z"/>
		<path fill="#1F1F1F" d="M98.344,109.39L65.487,60.089l-6.178,5.844v9.059c0,2.197-0.578,3.888-1.732,5.071
			c-1.155,1.183-2.484,1.773-3.986,1.773c-1.753,0-3.131-0.584-4.133-1.752c-1.002-1.169-1.502-2.896-1.502-5.177V12.071
			c0-2.532,0.486-4.459,1.46-5.781c0.974-1.32,2.365-1.983,4.175-1.983c1.753,0,3.144,0.599,4.174,1.795
			c1.029,1.196,1.544,2.964,1.544,5.301v41.881l12.815-13.441c1.586-1.669,2.797-2.81,3.631-3.422
			c0.835-0.612,1.851-0.918,3.048-0.918c1.419,0,2.602,0.453,3.547,1.357c0.946,0.905,1.419,2.039,1.419,3.401
			c0,1.67-1.544,3.897-4.633,6.679l-6.053,5.552l34.485,51.137c0.862,1.363,1.481,2.399,1.858,3.109
			c0.375,0.709,0.563,1.385,0.563,2.025c0,1.809-0.495,3.233-1.482,4.278c-0.988,1.043-2.289,1.564-3.902,1.564
			c-1.393,0-2.463-0.376-3.214-1.127C100.64,112.729,99.624,111.365,98.344,109.39z"/>
		<path fill="#1F1F1F" d="M173.818,66.935c0,3.145-0.77,5.837-2.297,8.077c-1.529,2.24-3.793,3.938-6.783,5.092
			c-2.992,1.156-6.631,1.732-10.916,1.732c-4.09,0-7.598-0.625-10.52-1.878s-5.078-2.818-6.469-4.696
			c-1.393-1.878-2.088-3.764-2.088-5.655c0-1.253,0.443-2.324,1.336-3.215c0.891-0.891,2.018-1.336,3.381-1.336
			c1.195,0,2.113,0.292,2.756,0.877c0.639,0.585,1.252,1.405,1.836,2.463c1.168,2.032,2.566,3.548,4.195,4.55
			c1.627,1.002,3.846,1.503,6.658,1.503c2.279,0,4.152-0.508,5.613-1.524c1.461-1.015,2.193-2.177,2.193-3.485
			c0-2.003-0.76-3.464-2.275-4.383c-1.518-0.918-4.016-1.795-7.494-2.629c-3.924-0.975-7.117-1.997-9.58-3.068
			c-2.461-1.072-4.432-2.484-5.906-4.237c-1.477-1.753-2.211-3.91-2.211-6.47c0-2.282,0.682-4.438,2.045-6.47
			c1.361-2.032,3.373-3.652,6.031-4.863c2.658-1.21,5.865-1.816,9.621-1.816c2.949,0,5.602,0.307,7.953,0.918
			c2.352,0.612,4.313,1.433,5.885,2.463c1.572,1.029,2.768,2.171,3.59,3.423c0.82,1.252,1.232,2.477,1.232,3.673
			c0,1.308-0.439,2.379-1.316,3.214c-0.875,0.835-2.123,1.252-3.732,1.252c-1.17,0-2.166-0.333-2.986-1.002
			c-0.822-0.667-1.76-1.669-2.818-3.005c-0.863-1.114-1.879-2.004-3.047-2.671c-1.17-0.668-2.756-1.002-4.76-1.002
			c-2.061,0-3.771,0.438-5.133,1.314c-1.365,0.876-2.047,1.969-2.047,3.277c0,1.197,0.502,2.178,1.502,2.943
			c1.002,0.765,2.352,1.398,4.051,1.899c1.695,0.5,4.033,1.113,7.012,1.837c3.533,0.862,6.422,1.892,8.662,3.089
			s3.938,2.608,5.092,4.237C173.24,62.99,173.818,64.848,173.818,66.935z"/>
		<path fill="#1F1F1F" d="M234.77,66.935c0,3.145-0.766,5.837-2.295,8.077c-1.531,2.24-3.793,3.938-6.785,5.092
			c-2.992,1.156-6.629,1.732-10.914,1.732c-4.092,0-7.598-0.625-10.52-1.878c-2.92-1.253-5.078-2.818-6.469-4.696
			c-1.393-1.878-2.088-3.764-2.088-5.655c0-1.253,0.445-2.324,1.336-3.215s2.018-1.336,3.381-1.336c1.197,0,2.115,0.292,2.756,0.877
			c0.639,0.585,1.252,1.405,1.836,2.463c1.168,2.032,2.566,3.548,4.193,4.55c1.629,1.002,3.85,1.503,6.66,1.503
			c2.281,0,4.15-0.508,5.611-1.524c1.463-1.015,2.193-2.177,2.193-3.485c0-2.003-0.76-3.464-2.275-4.383
			c-1.516-0.918-4.014-1.795-7.492-2.629c-3.924-0.975-7.119-1.997-9.58-3.068c-2.463-1.072-4.432-2.484-5.906-4.237
			c-1.475-1.753-2.211-3.91-2.211-6.47c0-2.282,0.682-4.438,2.045-6.47c1.363-2.032,3.373-3.652,6.029-4.863
			c2.658-1.21,5.867-1.816,9.623-1.816c2.949,0,5.6,0.307,7.951,0.918c2.352,0.612,4.314,1.433,5.885,2.463
			c1.572,1.029,2.77,2.171,3.59,3.423c0.822,1.252,1.234,2.477,1.234,3.673c0,1.308-0.441,2.379-1.318,3.214
			c-0.875,0.835-2.119,1.252-3.732,1.252c-1.17,0-2.166-0.333-2.988-1.002c-0.818-0.667-1.758-1.669-2.814-3.005
			c-0.863-1.114-1.879-2.004-3.047-2.671c-1.17-0.668-2.756-1.002-4.76-1.002c-2.059,0-3.77,0.438-5.135,1.314
			c-1.363,0.876-2.043,1.969-2.043,3.277c0,1.197,0.5,2.178,1.502,2.943s2.352,1.398,4.049,1.899c1.697,0.5,4.035,1.113,7.012,1.837
			c3.535,0.862,6.422,1.892,8.66,3.089c2.24,1.197,3.939,2.608,5.094,4.237C234.191,62.99,234.77,64.848,234.77,66.935z"/>
		<path fill="#1F1F1F" d="M278.254,66.935c0,3.145-0.766,5.837-2.295,8.077c-1.531,2.24-3.793,3.938-6.785,5.092
			c-2.992,1.156-6.629,1.732-10.914,1.732c-4.092,0-7.598-0.625-10.52-1.878s-5.078-2.818-6.471-4.696
			c-1.391-1.878-2.086-3.764-2.086-5.655c0-1.253,0.445-2.324,1.336-3.215s2.018-1.336,3.381-1.336c1.195,0,2.115,0.292,2.754,0.877
			c0.641,0.585,1.254,1.405,1.838,2.463c1.168,2.032,2.566,3.548,4.193,4.55c1.629,1.002,3.85,1.503,6.66,1.503
			c2.281,0,4.15-0.508,5.611-1.524c1.461-1.015,2.193-2.177,2.193-3.485c0-2.003-0.758-3.464-2.275-4.383
			c-1.516-0.918-4.014-1.795-7.492-2.629c-3.924-0.975-7.119-1.997-9.582-3.068c-2.461-1.072-4.43-2.484-5.904-4.237
			c-1.475-1.753-2.211-3.91-2.211-6.47c0-2.282,0.682-4.438,2.045-6.47c1.361-2.032,3.371-3.652,6.029-4.863
			c2.658-1.21,5.865-1.816,9.623-1.816c2.949,0,5.6,0.307,7.951,0.918c2.352,0.612,4.313,1.433,5.885,2.463
			c1.572,1.029,2.77,2.171,3.59,3.423c0.822,1.252,1.234,2.477,1.234,3.673c0,1.308-0.441,2.379-1.316,3.214
			c-0.877,0.835-2.121,1.252-3.734,1.252c-1.17,0-2.166-0.333-2.988-1.002c-0.818-0.667-1.758-1.669-2.814-3.005
			c-0.863-1.114-1.879-2.004-3.049-2.671c-1.168-0.668-2.754-1.002-4.758-1.002c-2.059,0-3.771,0.438-5.135,1.314
			c-1.361,0.876-2.043,1.969-2.043,3.277c0,1.197,0.5,2.178,1.5,2.943c1.004,0.765,2.352,1.398,4.051,1.899
			c1.697,0.5,4.035,1.113,7.012,1.837c3.535,0.862,6.422,1.892,8.66,3.089c2.24,1.197,3.939,2.608,5.092,4.237
			C277.676,62.99,278.254,64.848,278.254,66.935z"/>
		<g>
			<path fill="#1F1F1F" d="M190.582,41.973v32.935c0,2.281-0.543,4.008-1.627,5.177c-1.086,1.168-2.463,1.752-4.133,1.752
				s-3.029-0.598-4.072-1.794c-1.043-1.197-1.563-2.908-1.563-5.135V42.307c0-2.254,0.52-3.951,1.563-5.093
				c1.043-1.141,2.402-1.711,4.072-1.711s3.047,0.571,4.133,1.711C190.039,38.355,190.582,39.941,190.582,41.973z"/>
			<rect x="183.551" y="23.421" fill="#1F1F1F" width="3.418" height="8.542"/>
			<polyline fill="#1F1F1F" points="191.592,33.17 189.176,30.754 196.01,23.921 198.426,26.337 191.592,33.17 			"/>
			
				<rect x="189.322" y="17.441" transform="matrix(-0.7072 0.707 -0.707 -0.7072 342.934 -103.73)" fill="#1F1F1F" width="7.25" height="3.416"/>
			<polyline fill="#1F1F1F" points="178.926,33.172 172.092,26.338 174.508,23.922 181.342,30.756 178.926,33.172 			"/>
			
				<rect x="175.863" y="15.527" transform="matrix(-0.7071 0.7071 -0.7071 -0.7071 316.675 -92.8689)" fill="#1F1F1F" width="3.417" height="7.249"/>
			<rect x="183.551" y="9.753" fill="#1F1F1F" width="3.418" height="6.834"/>
		</g>
	</g>
	<g>
		<path fill="#1F1F1F" d="M92.276,62.961V41.387c0-1.837,0.413-3.213,1.239-4.131c0.827-0.918,1.912-1.377,3.26-1.377
			c1.407,0,2.524,0.459,3.351,1.377c0.826,0.918,1.239,2.294,1.239,4.131v22.064c0,2.508,0.281,4.605,0.841,6.288
			c0.562,1.683,1.556,2.989,2.984,3.917c1.427,0.929,3.427,1.392,5.997,1.392c3.551,0,6.061-0.943,7.529-2.83
			s2.203-4.747,2.203-8.583V41.387c0-1.856,0.407-3.24,1.225-4.147c0.815-0.907,1.906-1.362,3.273-1.362
			c1.366,0,2.474,0.455,3.321,1.362c0.846,0.907,1.27,2.291,1.27,4.147v21.574c0,3.509-0.342,6.437-1.025,8.782
			c-0.684,2.347-1.974,4.406-3.872,6.183c-1.632,1.509-3.529,2.611-5.691,3.305c-2.162,0.692-4.692,1.04-7.589,1.04
			c-3.448,0-6.417-0.373-8.905-1.117c-2.49-0.744-4.519-1.897-6.089-3.458c-1.572-1.561-2.724-3.561-3.458-5.998
			S92.276,66.347,92.276,62.961z"/>
	</g>
</g>
</svg>
